<mxfile host="drawio-plugin" modified="2024-04-28T16:08:41.478Z" agent="5.0 (X11; Linux x86_64) AppleWebKit/537.36 (KHTML, like Gecko) Chrome/122.0.0.0 Safari/537.36" etag="w2HbrbrQx9dZM2RfmChB" version="20.5.3" type="embed"><diagram id="C5RBs43oDa-KdzZeNtuy" name="Page-1"><mxGraphModel dx="11080" dy="6236" grid="1" gridSize="10" guides="1" tooltips="1" connect="1" arrows="1" fold="1" page="1" pageScale="1" pageWidth="827" pageHeight="1169" math="0" shadow="0"><root><mxCell id="WIyWlLk6GJQsqaUBKTNV-0"/><mxCell id="WIyWlLk6GJQsqaUBKTNV-1" parent="WIyWlLk6GJQsqaUBKTNV-0"/><mxCell id="eBTvOQhbbWVXLsYW8WIT-38" value="Account" style="swimlane;fontStyle=1;align=center;verticalAlign=top;childLayout=stackLayout;horizontal=1;startSize=26;horizontalStack=0;resizeParent=1;resizeParentMax=0;resizeLast=0;collapsible=1;marginBottom=0;whiteSpace=wrap;html=1;" parent="WIyWlLk6GJQsqaUBKTNV-1" vertex="1"><mxGeometry x="316" y="-1020" width="160" height="138" as="geometry"><mxRectangle x="361.5" y="18" width="84" height="26" as="alternateBounds"/></mxGeometry></mxCell><mxCell id="scS6lB70-Swo1higGm-x-66" value="+ field: type" style="text;strokeColor=none;fillColor=none;align=left;verticalAlign=top;spacingLeft=4;spacingRight=4;overflow=hidden;rotatable=0;points=[[0,0.5],[1,0.5]];portConstraint=eastwest;whiteSpace=wrap;html=1;" parent="eBTvOQhbbWVXLsYW8WIT-38" vertex="1"><mxGeometry y="26" width="160" height="26" as="geometry"/></mxCell><mxCell id="scS6lB70-Swo1higGm-x-67" value="+ field: type" style="text;strokeColor=none;fillColor=none;align=left;verticalAlign=top;spacingLeft=4;spacingRight=4;overflow=hidden;rotatable=0;points=[[0,0.5],[1,0.5]];portConstraint=eastwest;whiteSpace=wrap;html=1;" parent="eBTvOQhbbWVXLsYW8WIT-38" vertex="1"><mxGeometry y="52" width="160" height="26" as="geometry"/></mxCell><mxCell id="scS6lB70-Swo1higGm-x-69" value="" style="line;strokeWidth=1;fillColor=none;align=left;verticalAlign=middle;spacingTop=-1;spacingLeft=3;spacingRight=3;rotatable=0;labelPosition=right;points=[];portConstraint=eastwest;strokeColor=inherit;" parent="eBTvOQhbbWVXLsYW8WIT-38" vertex="1"><mxGeometry y="78" width="160" height="8" as="geometry"/></mxCell><mxCell id="scS6lB70-Swo1higGm-x-71" value="+ method(type): type" style="text;strokeColor=none;fillColor=none;align=left;verticalAlign=top;spacingLeft=4;spacingRight=4;overflow=hidden;rotatable=0;points=[[0,0.5],[1,0.5]];portConstraint=eastwest;whiteSpace=wrap;html=1;" parent="eBTvOQhbbWVXLsYW8WIT-38" vertex="1"><mxGeometry y="86" width="160" height="26" as="geometry"/></mxCell><mxCell id="scS6lB70-Swo1higGm-x-70" value="+ method(type): type" style="text;strokeColor=none;fillColor=none;align=left;verticalAlign=top;spacingLeft=4;spacingRight=4;overflow=hidden;rotatable=0;points=[[0,0.5],[1,0.5]];portConstraint=eastwest;whiteSpace=wrap;html=1;" parent="eBTvOQhbbWVXLsYW8WIT-38" vertex="1"><mxGeometry y="112" width="160" height="26" as="geometry"/></mxCell><mxCell id="eBTvOQhbbWVXLsYW8WIT-41" value="Person" style="swimlane;fontStyle=1;align=center;verticalAlign=top;childLayout=stackLayout;horizontal=1;startSize=26;horizontalStack=0;resizeParent=1;resizeParentMax=0;resizeLast=0;collapsible=1;marginBottom=0;whiteSpace=wrap;html=1;" parent="WIyWlLk6GJQsqaUBKTNV-1" vertex="1"><mxGeometry x="316" y="-740" width="160" height="164" as="geometry"><mxRectangle x="342" y="284" width="73" height="26" as="alternateBounds"/></mxGeometry></mxCell><mxCell id="scS6lB70-Swo1higGm-x-43" value="+ field: type" style="text;strokeColor=none;fillColor=none;align=left;verticalAlign=top;spacingLeft=4;spacingRight=4;overflow=hidden;rotatable=0;points=[[0,0.5],[1,0.5]];portConstraint=eastwest;whiteSpace=wrap;html=1;" parent="eBTvOQhbbWVXLsYW8WIT-41" vertex="1"><mxGeometry y="26" width="160" height="26" as="geometry"/></mxCell><mxCell id="scS6lB70-Swo1higGm-x-44" value="+ field: type" style="text;strokeColor=none;fillColor=none;align=left;verticalAlign=top;spacingLeft=4;spacingRight=4;overflow=hidden;rotatable=0;points=[[0,0.5],[1,0.5]];portConstraint=eastwest;whiteSpace=wrap;html=1;" parent="eBTvOQhbbWVXLsYW8WIT-41" vertex="1"><mxGeometry y="52" width="160" height="26" as="geometry"/></mxCell><mxCell id="eBTvOQhbbWVXLsYW8WIT-45" value="" style="line;strokeWidth=1;fillColor=none;align=left;verticalAlign=middle;spacingTop=-1;spacingLeft=3;spacingRight=3;rotatable=0;labelPosition=right;points=[];portConstraint=eastwest;strokeColor=inherit;" parent="eBTvOQhbbWVXLsYW8WIT-41" vertex="1"><mxGeometry y="78" width="160" height="8" as="geometry"/></mxCell><mxCell id="scS6lB70-Swo1higGm-x-45" value="+ checkUser()" style="text;strokeColor=none;fillColor=none;align=left;verticalAlign=top;spacingLeft=4;spacingRight=4;overflow=hidden;rotatable=0;points=[[0,0.5],[1,0.5]];portConstraint=eastwest;whiteSpace=wrap;html=1;" parent="eBTvOQhbbWVXLsYW8WIT-41" vertex="1"><mxGeometry y="86" width="160" height="26" as="geometry"/></mxCell><mxCell id="scS6lB70-Swo1higGm-x-47" value="+ method(type): type" style="text;strokeColor=none;fillColor=none;align=left;verticalAlign=top;spacingLeft=4;spacingRight=4;overflow=hidden;rotatable=0;points=[[0,0.5],[1,0.5]];portConstraint=eastwest;whiteSpace=wrap;html=1;" parent="eBTvOQhbbWVXLsYW8WIT-41" vertex="1"><mxGeometry y="112" width="160" height="26" as="geometry"/></mxCell><mxCell id="scS6lB70-Swo1higGm-x-46" value="+ method(type): type" style="text;strokeColor=none;fillColor=none;align=left;verticalAlign=top;spacingLeft=4;spacingRight=4;overflow=hidden;rotatable=0;points=[[0,0.5],[1,0.5]];portConstraint=eastwest;whiteSpace=wrap;html=1;" parent="eBTvOQhbbWVXLsYW8WIT-41" vertex="1"><mxGeometry y="138" width="160" height="26" as="geometry"/></mxCell><mxCell id="eBTvOQhbbWVXLsYW8WIT-108" style="edgeStyle=orthogonalEdgeStyle;rounded=0;orthogonalLoop=1;jettySize=auto;html=1;exitX=0;exitY=0.5;exitDx=0;exitDy=0;entryX=1;entryY=0.5;entryDx=0;entryDy=0;" parent="WIyWlLk6GJQsqaUBKTNV-1" source="eBTvOQhbbWVXLsYW8WIT-57" target="eBTvOQhbbWVXLsYW8WIT-41" edge="1"><mxGeometry relative="1" as="geometry"/></mxCell><mxCell id="eBTvOQhbbWVXLsYW8WIT-57" value="Customer" style="swimlane;fontStyle=1;align=center;verticalAlign=top;childLayout=stackLayout;horizontal=1;startSize=26;horizontalStack=0;resizeParent=1;resizeParentMax=0;resizeLast=0;collapsible=1;marginBottom=0;whiteSpace=wrap;html=1;" parent="WIyWlLk6GJQsqaUBKTNV-1" vertex="1"><mxGeometry x="804" y="-713" width="180" height="164" as="geometry"><mxRectangle x="634" y="284" width="87" height="26" as="alternateBounds"/></mxGeometry></mxCell><mxCell id="eBTvOQhbbWVXLsYW8WIT-58" value="+ field: type" style="text;strokeColor=none;fillColor=none;align=left;verticalAlign=top;spacingLeft=4;spacingRight=4;overflow=hidden;rotatable=0;points=[[0,0.5],[1,0.5]];portConstraint=eastwest;whiteSpace=wrap;html=1;" parent="eBTvOQhbbWVXLsYW8WIT-57" vertex="1"><mxGeometry y="26" width="180" height="26" as="geometry"/></mxCell><mxCell id="scS6lB70-Swo1higGm-x-38" value="+ field: type" style="text;strokeColor=none;fillColor=none;align=left;verticalAlign=top;spacingLeft=4;spacingRight=4;overflow=hidden;rotatable=0;points=[[0,0.5],[1,0.5]];portConstraint=eastwest;whiteSpace=wrap;html=1;" parent="eBTvOQhbbWVXLsYW8WIT-57" vertex="1"><mxGeometry y="52" width="180" height="26" as="geometry"/></mxCell><mxCell id="eBTvOQhbbWVXLsYW8WIT-59" value="" style="line;strokeWidth=1;fillColor=none;align=left;verticalAlign=middle;spacingTop=-1;spacingLeft=3;spacingRight=3;rotatable=0;labelPosition=right;points=[];portConstraint=eastwest;strokeColor=inherit;" parent="eBTvOQhbbWVXLsYW8WIT-57" vertex="1"><mxGeometry y="78" width="180" height="8" as="geometry"/></mxCell><mxCell id="scS6lB70-Swo1higGm-x-68" value="+ getOrderHistory(): ArrayList&lt;br&gt;" style="text;strokeColor=none;fillColor=none;align=left;verticalAlign=top;spacingLeft=4;spacingRight=4;overflow=hidden;rotatable=0;points=[[0,0.5],[1,0.5]];portConstraint=eastwest;whiteSpace=wrap;html=1;" parent="eBTvOQhbbWVXLsYW8WIT-57" vertex="1"><mxGeometry y="86" width="180" height="26" as="geometry"/></mxCell><mxCell id="36" value="&lt;div&gt;+ notifyCustomer(): void&lt;/div&gt;&lt;div&gt;&lt;br&gt;&lt;/div&gt;" style="text;strokeColor=none;fillColor=none;align=left;verticalAlign=top;spacingLeft=4;spacingRight=4;overflow=hidden;rotatable=0;points=[[0,0.5],[1,0.5]];portConstraint=eastwest;whiteSpace=wrap;html=1;" vertex="1" parent="eBTvOQhbbWVXLsYW8WIT-57"><mxGeometry y="112" width="180" height="26" as="geometry"/></mxCell><mxCell id="37" value="+ isCheckedIn(): Boolean" style="text;strokeColor=none;fillColor=none;align=left;verticalAlign=top;spacingLeft=4;spacingRight=4;overflow=hidden;rotatable=0;points=[[0,0.5],[1,0.5]];portConstraint=eastwest;whiteSpace=wrap;html=1;" vertex="1" parent="eBTvOQhbbWVXLsYW8WIT-57"><mxGeometry y="138" width="180" height="26" as="geometry"/></mxCell><mxCell id="eBTvOQhbbWVXLsYW8WIT-68" style="edgeStyle=orthogonalEdgeStyle;rounded=0;orthogonalLoop=1;jettySize=auto;html=1;exitX=0.5;exitY=0;exitDx=0;exitDy=0;entryX=0.5;entryY=1;entryDx=0;entryDy=0;" parent="WIyWlLk6GJQsqaUBKTNV-1" source="eBTvOQhbbWVXLsYW8WIT-61" target="eBTvOQhbbWVXLsYW8WIT-41" edge="1"><mxGeometry relative="1" as="geometry"/></mxCell><mxCell id="eBTvOQhbbWVXLsYW8WIT-61" value="Owner" style="swimlane;fontStyle=1;align=center;verticalAlign=top;childLayout=stackLayout;horizontal=1;startSize=26;horizontalStack=0;resizeParent=1;resizeParentMax=0;resizeLast=0;collapsible=1;marginBottom=0;whiteSpace=wrap;html=1;" parent="WIyWlLk6GJQsqaUBKTNV-1" vertex="1"><mxGeometry x="316" y="-510" width="160" height="86" as="geometry"><mxRectangle x="403.5" y="340" width="87" height="26" as="alternateBounds"/></mxGeometry></mxCell><mxCell id="eBTvOQhbbWVXLsYW8WIT-62" value="+ field: type" style="text;strokeColor=none;fillColor=none;align=left;verticalAlign=top;spacingLeft=4;spacingRight=4;overflow=hidden;rotatable=0;points=[[0,0.5],[1,0.5]];portConstraint=eastwest;whiteSpace=wrap;html=1;" parent="eBTvOQhbbWVXLsYW8WIT-61" vertex="1"><mxGeometry y="26" width="160" height="26" as="geometry"/></mxCell><mxCell id="eBTvOQhbbWVXLsYW8WIT-63" value="" style="line;strokeWidth=1;fillColor=none;align=left;verticalAlign=middle;spacingTop=-1;spacingLeft=3;spacingRight=3;rotatable=0;labelPosition=right;points=[];portConstraint=eastwest;strokeColor=inherit;" parent="eBTvOQhbbWVXLsYW8WIT-61" vertex="1"><mxGeometry y="52" width="160" height="8" as="geometry"/></mxCell><mxCell id="eBTvOQhbbWVXLsYW8WIT-64" value="+ method(type): type" style="text;strokeColor=none;fillColor=none;align=left;verticalAlign=top;spacingLeft=4;spacingRight=4;overflow=hidden;rotatable=0;points=[[0,0.5],[1,0.5]];portConstraint=eastwest;whiteSpace=wrap;html=1;" parent="eBTvOQhbbWVXLsYW8WIT-61" vertex="1"><mxGeometry y="60" width="160" height="26" as="geometry"/></mxCell><mxCell id="eBTvOQhbbWVXLsYW8WIT-70" value="" style="endArrow=none;html=1;rounded=0;entryX=0.5;entryY=1;entryDx=0;entryDy=0;exitX=0.5;exitY=0;exitDx=0;exitDy=0;" parent="WIyWlLk6GJQsqaUBKTNV-1" source="eBTvOQhbbWVXLsYW8WIT-41" target="eBTvOQhbbWVXLsYW8WIT-38" edge="1"><mxGeometry relative="1" as="geometry"><mxPoint x="272.5" y="-546.0000000000001" as="sourcePoint"/><mxPoint x="272.5" y="-626.0000000000001" as="targetPoint"/></mxGeometry></mxCell><mxCell id="eBTvOQhbbWVXLsYW8WIT-71" value="1" style="resizable=0;html=1;whiteSpace=wrap;align=left;verticalAlign=bottom;" parent="eBTvOQhbbWVXLsYW8WIT-70" connectable="0" vertex="1"><mxGeometry x="-1" relative="1" as="geometry"><mxPoint x="-16" as="offset"/></mxGeometry></mxCell><mxCell id="eBTvOQhbbWVXLsYW8WIT-72" value="1" style="resizable=0;html=1;whiteSpace=wrap;align=right;verticalAlign=bottom;" parent="eBTvOQhbbWVXLsYW8WIT-70" connectable="0" vertex="1"><mxGeometry x="1" relative="1" as="geometry"><mxPoint x="-6" y="20" as="offset"/></mxGeometry></mxCell><mxCell id="eBTvOQhbbWVXLsYW8WIT-73" value="Bussiness" style="swimlane;fontStyle=1;align=center;verticalAlign=top;childLayout=stackLayout;horizontal=1;startSize=26;horizontalStack=0;resizeParent=1;resizeParentMax=0;resizeLast=0;collapsible=1;marginBottom=0;whiteSpace=wrap;html=1;" parent="WIyWlLk6GJQsqaUBKTNV-1" vertex="1"><mxGeometry x="284" y="-314" width="268" height="606" as="geometry"><mxRectangle x="422" y="536" width="94" height="26" as="alternateBounds"/></mxGeometry></mxCell><mxCell id="scS6lB70-Swo1higGm-x-84" value="&lt;font style=&quot;font-size: 12px;&quot;&gt;+ field: type&lt;/font&gt;" style="text;strokeColor=none;fillColor=none;align=left;verticalAlign=top;spacingLeft=4;spacingRight=4;overflow=hidden;rotatable=0;points=[[0,0.5],[1,0.5]];portConstraint=eastwest;whiteSpace=wrap;html=1;" parent="eBTvOQhbbWVXLsYW8WIT-73" vertex="1"><mxGeometry y="26" width="268" height="26" as="geometry"/></mxCell><mxCell id="eBTvOQhbbWVXLsYW8WIT-75" value="" style="line;strokeWidth=1;fillColor=none;align=left;verticalAlign=middle;spacingTop=-1;spacingLeft=3;spacingRight=3;rotatable=0;labelPosition=right;points=[];portConstraint=eastwest;strokeColor=inherit;" parent="eBTvOQhbbWVXLsYW8WIT-73" vertex="1"><mxGeometry y="52" width="268" height="8" as="geometry"/></mxCell><mxCell id="scS6lB70-Swo1higGm-x-14" value="&lt;font style=&quot;font-size: 12px;&quot;&gt;+ reservationCheck(int):string&lt;/font&gt;" style="text;strokeColor=none;fillColor=none;align=left;verticalAlign=top;spacingLeft=4;spacingRight=4;overflow=hidden;rotatable=0;points=[[0,0.5],[1,0.5]];portConstraint=eastwest;whiteSpace=wrap;html=1;" parent="eBTvOQhbbWVXLsYW8WIT-73" vertex="1"><mxGeometry y="60" width="268" height="26" as="geometry"/></mxCell><mxCell id="scS6lB70-Swo1higGm-x-15" value="&lt;div style=&quot;font-size: 11px;&quot;&gt;&lt;font style=&quot;font-size: 11px;&quot;&gt;+ isTableFree(int) :string&amp;nbsp;&lt;/font&gt;&lt;/div&gt;&lt;div style=&quot;font-size: 11px;&quot;&gt;&lt;br&gt;&lt;/div&gt;" style="text;strokeColor=none;fillColor=none;align=left;verticalAlign=top;spacingLeft=4;spacingRight=4;overflow=hidden;rotatable=0;points=[[0,0.5],[1,0.5]];portConstraint=eastwest;whiteSpace=wrap;html=1;" parent="eBTvOQhbbWVXLsYW8WIT-73" vertex="1"><mxGeometry y="86" width="268" height="26" as="geometry"/></mxCell><mxCell id="scS6lB70-Swo1higGm-x-16" value="&lt;div style=&quot;font-size: 11px;&quot;&gt;&lt;font style=&quot;font-size: 11px;&quot;&gt;+&amp;nbsp;&lt;span style=&quot;text-align: center; text-wrap: nowrap; background-color: initial;&quot;&gt;showReservedMes():&lt;/span&gt;&lt;/font&gt;&lt;/div&gt;&lt;div style=&quot;font-size: 11px;&quot;&gt;&lt;span style=&quot;text-align: center; text-wrap: nowrap; background-color: initial;&quot;&gt;&lt;br&gt;&lt;/span&gt;&lt;/div&gt;" style="text;strokeColor=none;fillColor=none;align=left;verticalAlign=top;spacingLeft=4;spacingRight=4;overflow=hidden;rotatable=0;points=[[0,0.5],[1,0.5]];portConstraint=eastwest;whiteSpace=wrap;html=1;" parent="eBTvOQhbbWVXLsYW8WIT-73" vertex="1"><mxGeometry y="112" width="268" height="26" as="geometry"/></mxCell><mxCell id="scS6lB70-Swo1higGm-x-17" value="&lt;div style=&quot;&quot;&gt;&lt;div&gt;+ notTableFree(int):&lt;/div&gt;&lt;div&gt;&lt;br&gt;&lt;/div&gt;&lt;/div&gt;" style="text;strokeColor=none;fillColor=none;align=left;verticalAlign=top;spacingLeft=4;spacingRight=4;overflow=hidden;rotatable=0;points=[[0,0.5],[1,0.5]];portConstraint=eastwest;whiteSpace=wrap;html=1;" parent="eBTvOQhbbWVXLsYW8WIT-73" vertex="1"><mxGeometry y="138" width="268" height="26" as="geometry"/></mxCell><mxCell id="scS6lB70-Swo1higGm-x-18" value="&lt;div style=&quot;&quot;&gt;&lt;div&gt;+ scanQR():&lt;/div&gt;&lt;div&gt;&lt;br&gt;&lt;/div&gt;&lt;/div&gt;" style="text;strokeColor=none;fillColor=none;align=left;verticalAlign=top;spacingLeft=4;spacingRight=4;overflow=hidden;rotatable=0;points=[[0,0.5],[1,0.5]];portConstraint=eastwest;whiteSpace=wrap;html=1;" parent="eBTvOQhbbWVXLsYW8WIT-73" vertex="1"><mxGeometry y="164" width="268" height="26" as="geometry"/></mxCell><mxCell id="scS6lB70-Swo1higGm-x-25" value="&lt;div style=&quot;&quot;&gt;&lt;div&gt;+ checkTransaction(int):string&lt;/div&gt;&lt;div&gt;&lt;br&gt;&lt;/div&gt;&lt;/div&gt;" style="text;strokeColor=none;fillColor=none;align=left;verticalAlign=top;spacingLeft=4;spacingRight=4;overflow=hidden;rotatable=0;points=[[0,0.5],[1,0.5]];portConstraint=eastwest;whiteSpace=wrap;html=1;" parent="eBTvOQhbbWVXLsYW8WIT-73" vertex="1"><mxGeometry y="190" width="268" height="26" as="geometry"/></mxCell><mxCell id="scS6lB70-Swo1higGm-x-27" value="&lt;div style=&quot;&quot;&gt;&lt;div&gt;+ checkTransaction(int):string&lt;/div&gt;&lt;div&gt;&lt;br&gt;&lt;/div&gt;&lt;/div&gt;" style="text;strokeColor=none;fillColor=none;align=left;verticalAlign=top;spacingLeft=4;spacingRight=4;overflow=hidden;rotatable=0;points=[[0,0.5],[1,0.5]];portConstraint=eastwest;whiteSpace=wrap;html=1;" parent="eBTvOQhbbWVXLsYW8WIT-73" vertex="1"><mxGeometry y="216" width="268" height="26" as="geometry"/></mxCell><mxCell id="scS6lB70-Swo1higGm-x-28" value="&lt;div style=&quot;font-size: 11px;&quot;&gt;&lt;font style=&quot;font-size: 11px;&quot;&gt;&lt;span style=&quot;text-align: center; text-wrap: nowrap;&quot;&gt;+ removeBill(int):&lt;/span&gt;&lt;span style=&quot;text-align: center; text-wrap: nowrap; background-color: initial;&quot;&gt;&lt;br&gt;&lt;/span&gt;&lt;/font&gt;&lt;/div&gt;&lt;div style=&quot;font-size: 11px;&quot;&gt;&lt;span style=&quot;text-align: center; text-wrap: nowrap;&quot;&gt;&lt;br&gt;&lt;/span&gt;&lt;/div&gt;" style="text;strokeColor=none;fillColor=none;align=left;verticalAlign=top;spacingLeft=4;spacingRight=4;overflow=hidden;rotatable=0;points=[[0,0.5],[1,0.5]];portConstraint=eastwest;whiteSpace=wrap;html=1;" parent="eBTvOQhbbWVXLsYW8WIT-73" vertex="1"><mxGeometry y="242" width="268" height="26" as="geometry"/></mxCell><mxCell id="scS6lB70-Swo1higGm-x-26" value="&lt;div style=&quot;&quot;&gt;&lt;div&gt;+ freeTable(int):&lt;/div&gt;&lt;div&gt;&lt;br&gt;&lt;/div&gt;&lt;/div&gt;" style="text;strokeColor=none;fillColor=none;align=left;verticalAlign=top;spacingLeft=4;spacingRight=4;overflow=hidden;rotatable=0;points=[[0,0.5],[1,0.5]];portConstraint=eastwest;whiteSpace=wrap;html=1;" parent="eBTvOQhbbWVXLsYW8WIT-73" vertex="1"><mxGeometry y="268" width="268" height="26" as="geometry"/></mxCell><mxCell id="scS6lB70-Swo1higGm-x-19" value="&lt;div style=&quot;&quot;&gt;&lt;div&gt;+ addBillHistory(int):&lt;/div&gt;&lt;div&gt;&lt;br&gt;&lt;/div&gt;&lt;/div&gt;" style="text;strokeColor=none;fillColor=none;align=left;verticalAlign=top;spacingLeft=4;spacingRight=4;overflow=hidden;rotatable=0;points=[[0,0.5],[1,0.5]];portConstraint=eastwest;whiteSpace=wrap;html=1;" parent="eBTvOQhbbWVXLsYW8WIT-73" vertex="1"><mxGeometry y="294" width="268" height="26" as="geometry"/></mxCell><mxCell id="scS6lB70-Swo1higGm-x-20" value="&lt;div style=&quot;&quot;&gt;&lt;div&gt;+ scanQrWorker():&lt;/div&gt;&lt;div&gt;&lt;br&gt;&lt;/div&gt;&lt;/div&gt;" style="text;strokeColor=none;fillColor=none;align=left;verticalAlign=top;spacingLeft=4;spacingRight=4;overflow=hidden;rotatable=0;points=[[0,0.5],[1,0.5]];portConstraint=eastwest;whiteSpace=wrap;html=1;" parent="eBTvOQhbbWVXLsYW8WIT-73" vertex="1"><mxGeometry y="320" width="268" height="26" as="geometry"/></mxCell><mxCell id="11" value="&lt;div style=&quot;&quot;&gt;&lt;div&gt;+&amp;nbsp;&lt;span style=&quot;background-color: initial;&quot;&gt;fetchLate&lt;/span&gt;&lt;span style=&quot;background-color: initial;&quot;&gt;Workers()&lt;/span&gt;&lt;/div&gt;&lt;/div&gt;" style="text;strokeColor=none;fillColor=none;align=left;verticalAlign=top;spacingLeft=4;spacingRight=4;overflow=hidden;rotatable=0;points=[[0,0.5],[1,0.5]];portConstraint=eastwest;whiteSpace=wrap;html=1;" parent="eBTvOQhbbWVXLsYW8WIT-73" vertex="1"><mxGeometry y="346" width="268" height="26" as="geometry"/></mxCell><mxCell id="12" value="&lt;div style=&quot;&quot;&gt;&lt;div&gt;+&amp;nbsp;&lt;span style=&quot;background-color: initial;&quot;&gt;addEvent()&lt;/span&gt;&lt;/div&gt;&lt;/div&gt;" style="text;strokeColor=none;fillColor=none;align=left;verticalAlign=top;spacingLeft=4;spacingRight=4;overflow=hidden;rotatable=0;points=[[0,0.5],[1,0.5]];portConstraint=eastwest;whiteSpace=wrap;html=1;" parent="eBTvOQhbbWVXLsYW8WIT-73" vertex="1"><mxGeometry y="372" width="268" height="26" as="geometry"/></mxCell><mxCell id="13" value="&lt;div style=&quot;&quot;&gt;&lt;div&gt;+&amp;nbsp;&lt;span style=&quot;background-color: initial;&quot;&gt;calculatesBusinessStatistics()&lt;/span&gt;&lt;/div&gt;&lt;/div&gt;" style="text;strokeColor=none;fillColor=none;align=left;verticalAlign=top;spacingLeft=4;spacingRight=4;overflow=hidden;rotatable=0;points=[[0,0.5],[1,0.5]];portConstraint=eastwest;whiteSpace=wrap;html=1;" parent="eBTvOQhbbWVXLsYW8WIT-73" vertex="1"><mxGeometry y="398" width="268" height="26" as="geometry"/></mxCell><mxCell id="16" value="&lt;div style=&quot;&quot;&gt;&lt;div&gt;+&amp;nbsp;&lt;span style=&quot;background-color: initial;&quot;&gt;fetchWorkers()&lt;/span&gt;&lt;/div&gt;&lt;/div&gt;" style="text;strokeColor=none;fillColor=none;align=left;verticalAlign=top;spacingLeft=4;spacingRight=4;overflow=hidden;rotatable=0;points=[[0,0.5],[1,0.5]];portConstraint=eastwest;whiteSpace=wrap;html=1;" parent="eBTvOQhbbWVXLsYW8WIT-73" vertex="1"><mxGeometry y="424" width="268" height="26" as="geometry"/></mxCell><mxCell id="17" value="&lt;div style=&quot;&quot;&gt;&lt;div&gt;+&amp;nbsp;&lt;span style=&quot;background-color: initial;&quot;&gt;fetchSubscriptions()&lt;/span&gt;&lt;/div&gt;&lt;/div&gt;" style="text;strokeColor=none;fillColor=none;align=left;verticalAlign=top;spacingLeft=4;spacingRight=4;overflow=hidden;rotatable=0;points=[[0,0.5],[1,0.5]];portConstraint=eastwest;whiteSpace=wrap;html=1;" parent="eBTvOQhbbWVXLsYW8WIT-73" vertex="1"><mxGeometry y="450" width="268" height="26" as="geometry"/></mxCell><mxCell id="18" value="&lt;div style=&quot;&quot;&gt;&lt;div&gt;+&amp;nbsp;&lt;span style=&quot;background-color: initial;&quot;&gt;deleteSubscription()&lt;/span&gt;&lt;/div&gt;&lt;/div&gt;" style="text;strokeColor=none;fillColor=none;align=left;verticalAlign=top;spacingLeft=4;spacingRight=4;overflow=hidden;rotatable=0;points=[[0,0.5],[1,0.5]];portConstraint=eastwest;whiteSpace=wrap;html=1;" parent="eBTvOQhbbWVXLsYW8WIT-73" vertex="1"><mxGeometry y="476" width="268" height="26" as="geometry"/></mxCell><mxCell id="24" value="+ getDescription()" style="text;strokeColor=none;fillColor=none;align=left;verticalAlign=top;spacingLeft=4;spacingRight=4;overflow=hidden;rotatable=0;points=[[0,0.5],[1,0.5]];portConstraint=eastwest;whiteSpace=wrap;html=1;" parent="eBTvOQhbbWVXLsYW8WIT-73" vertex="1"><mxGeometry y="502" width="268" height="26" as="geometry"/></mxCell><mxCell id="26" value="+ getBusMap()&lt;div&gt;&lt;br&gt;&lt;/div&gt;" style="text;strokeColor=none;fillColor=none;align=left;verticalAlign=top;spacingLeft=4;spacingRight=4;overflow=hidden;rotatable=0;points=[[0,0.5],[1,0.5]];portConstraint=eastwest;whiteSpace=wrap;html=1;" parent="eBTvOQhbbWVXLsYW8WIT-73" vertex="1"><mxGeometry y="528" width="268" height="26" as="geometry"/></mxCell><mxCell id="25" value="+ showDescription()" style="text;strokeColor=none;fillColor=none;align=left;verticalAlign=top;spacingLeft=4;spacingRight=4;overflow=hidden;rotatable=0;points=[[0,0.5],[1,0.5]];portConstraint=eastwest;whiteSpace=wrap;html=1;" parent="eBTvOQhbbWVXLsYW8WIT-73" vertex="1"><mxGeometry y="554" width="268" height="26" as="geometry"/></mxCell><mxCell id="OGeJCwvFa22-by8DKtIA-27" value="+&amp;nbsp; getBusMap()" style="text;strokeColor=none;fillColor=none;align=left;verticalAlign=top;spacingLeft=4;spacingRight=4;overflow=hidden;rotatable=0;points=[[0,0.5],[1,0.5]];portConstraint=eastwest;whiteSpace=wrap;html=1;" parent="eBTvOQhbbWVXLsYW8WIT-73" vertex="1"><mxGeometry y="580" width="268" height="26" as="geometry"/></mxCell><mxCell id="eBTvOQhbbWVXLsYW8WIT-166" style="edgeStyle=orthogonalEdgeStyle;rounded=0;orthogonalLoop=1;jettySize=auto;html=1;exitX=0.5;exitY=0;exitDx=0;exitDy=0;entryX=0;entryY=0.5;entryDx=0;entryDy=0;" parent="WIyWlLk6GJQsqaUBKTNV-1" source="eBTvOQhbbWVXLsYW8WIT-79" target="eBTvOQhbbWVXLsYW8WIT-41" edge="1"><mxGeometry relative="1" as="geometry"/></mxCell><mxCell id="eBTvOQhbbWVXLsYW8WIT-79" value="Worker" style="swimlane;fontStyle=1;align=center;verticalAlign=top;childLayout=stackLayout;horizontal=1;startSize=26;horizontalStack=0;resizeParent=1;resizeParentMax=0;resizeLast=0;collapsible=1;marginBottom=0;whiteSpace=wrap;html=1;" parent="WIyWlLk6GJQsqaUBKTNV-1" vertex="1"><mxGeometry x="-356" y="-300" width="160" height="138" as="geometry"><mxRectangle x="-40" y="534" width="73" height="26" as="alternateBounds"/></mxGeometry></mxCell><mxCell id="scS6lB70-Swo1higGm-x-80" value="+ field: type" style="text;strokeColor=none;fillColor=none;align=left;verticalAlign=top;spacingLeft=4;spacingRight=4;overflow=hidden;rotatable=0;points=[[0,0.5],[1,0.5]];portConstraint=eastwest;whiteSpace=wrap;html=1;" parent="eBTvOQhbbWVXLsYW8WIT-79" vertex="1"><mxGeometry y="26" width="160" height="26" as="geometry"/></mxCell><mxCell id="eBTvOQhbbWVXLsYW8WIT-81" value="" style="line;strokeWidth=1;fillColor=none;align=left;verticalAlign=middle;spacingTop=-1;spacingLeft=3;spacingRight=3;rotatable=0;labelPosition=right;points=[];portConstraint=eastwest;strokeColor=inherit;" parent="eBTvOQhbbWVXLsYW8WIT-79" vertex="1"><mxGeometry y="52" width="160" height="8" as="geometry"/></mxCell><mxCell id="scS6lB70-Swo1higGm-x-21" value="&lt;div style=&quot;text-align: center;&quot;&gt;&lt;font style=&quot;background-color: initial; font-size: 11px;&quot;&gt;&lt;span style=&quot;font-size: 12px;&quot;&gt;+&amp;nbsp;&lt;/span&gt;&lt;/font&gt;&lt;span style=&quot;background-color: initial;&quot;&gt;&lt;font style=&quot;font-size: 12px;&quot;&gt;logCheckInTime(int):&lt;/font&gt;&lt;/span&gt;&lt;/div&gt;&lt;div&gt;&lt;font style=&quot;font-size: 12px;&quot;&gt;&lt;span style=&quot;text-align: center; font-size: 6px;&quot;&gt;&lt;br&gt;&lt;/span&gt;&lt;/font&gt;&lt;/div&gt;" style="text;strokeColor=none;fillColor=none;align=left;verticalAlign=top;spacingLeft=4;spacingRight=4;overflow=hidden;rotatable=0;points=[[0,0.5],[1,0.5]];portConstraint=eastwest;whiteSpace=wrap;html=1;" parent="eBTvOQhbbWVXLsYW8WIT-79" vertex="1"><mxGeometry y="60" width="160" height="26" as="geometry"/></mxCell><mxCell id="scS6lB70-Swo1higGm-x-24" value="&lt;div&gt;+ logCheckOutTime(int):&lt;/div&gt;&lt;div&gt;&lt;br&gt;&lt;/div&gt;" style="text;strokeColor=none;fillColor=none;align=left;verticalAlign=top;spacingLeft=4;spacingRight=4;overflow=hidden;rotatable=0;points=[[0,0.5],[1,0.5]];portConstraint=eastwest;whiteSpace=wrap;html=1;" parent="eBTvOQhbbWVXLsYW8WIT-79" vertex="1"><mxGeometry y="86" width="160" height="26" as="geometry"/></mxCell><mxCell id="scS6lB70-Swo1higGm-x-22" value="+ method(type): type" style="text;strokeColor=none;fillColor=none;align=left;verticalAlign=top;spacingLeft=4;spacingRight=4;overflow=hidden;rotatable=0;points=[[0,0.5],[1,0.5]];portConstraint=eastwest;whiteSpace=wrap;html=1;" parent="eBTvOQhbbWVXLsYW8WIT-79" vertex="1"><mxGeometry y="112" width="160" height="26" as="geometry"/></mxCell><mxCell id="scS6lB70-Swo1higGm-x-1" style="edgeStyle=orthogonalEdgeStyle;rounded=0;orthogonalLoop=1;jettySize=auto;html=1;exitX=0.5;exitY=0;exitDx=0;exitDy=0;" parent="WIyWlLk6GJQsqaUBKTNV-1" source="eBTvOQhbbWVXLsYW8WIT-93" target="eBTvOQhbbWVXLsYW8WIT-79" edge="1"><mxGeometry relative="1" as="geometry"/></mxCell><mxCell id="eBTvOQhbbWVXLsYW8WIT-93" value="Cook" style="swimlane;fontStyle=1;align=center;verticalAlign=top;childLayout=stackLayout;horizontal=1;startSize=26;horizontalStack=0;resizeParent=1;resizeParentMax=0;resizeLast=0;collapsible=1;marginBottom=0;whiteSpace=wrap;html=1;" parent="WIyWlLk6GJQsqaUBKTNV-1" vertex="1"><mxGeometry x="-496" y="20" width="160" height="86" as="geometry"><mxRectangle x="113.5" y="804" width="70" height="26" as="alternateBounds"/></mxGeometry></mxCell><mxCell id="eBTvOQhbbWVXLsYW8WIT-94" value="+ field: type" style="text;strokeColor=none;fillColor=none;align=left;verticalAlign=top;spacingLeft=4;spacingRight=4;overflow=hidden;rotatable=0;points=[[0,0.5],[1,0.5]];portConstraint=eastwest;whiteSpace=wrap;html=1;" parent="eBTvOQhbbWVXLsYW8WIT-93" vertex="1"><mxGeometry y="26" width="160" height="26" as="geometry"/></mxCell><mxCell id="eBTvOQhbbWVXLsYW8WIT-95" value="" style="line;strokeWidth=1;fillColor=none;align=left;verticalAlign=middle;spacingTop=-1;spacingLeft=3;spacingRight=3;rotatable=0;labelPosition=right;points=[];portConstraint=eastwest;strokeColor=inherit;" parent="eBTvOQhbbWVXLsYW8WIT-93" vertex="1"><mxGeometry y="52" width="160" height="8" as="geometry"/></mxCell><mxCell id="eBTvOQhbbWVXLsYW8WIT-96" value="+ method(type): type" style="text;strokeColor=none;fillColor=none;align=left;verticalAlign=top;spacingLeft=4;spacingRight=4;overflow=hidden;rotatable=0;points=[[0,0.5],[1,0.5]];portConstraint=eastwest;whiteSpace=wrap;html=1;" parent="eBTvOQhbbWVXLsYW8WIT-93" vertex="1"><mxGeometry y="60" width="160" height="26" as="geometry"/></mxCell><mxCell id="eBTvOQhbbWVXLsYW8WIT-222" style="edgeStyle=orthogonalEdgeStyle;rounded=0;orthogonalLoop=1;jettySize=auto;html=1;exitX=0.5;exitY=0;exitDx=0;exitDy=0;" parent="WIyWlLk6GJQsqaUBKTNV-1" source="eBTvOQhbbWVXLsYW8WIT-97" target="eBTvOQhbbWVXLsYW8WIT-79" edge="1"><mxGeometry relative="1" as="geometry"><Array as="points"><mxPoint x="-526" y="-136"/><mxPoint x="-326" y="-136"/></Array></mxGeometry></mxCell><mxCell id="eBTvOQhbbWVXLsYW8WIT-97" value="Delivery" style="swimlane;fontStyle=1;align=center;verticalAlign=top;childLayout=stackLayout;horizontal=1;startSize=26;horizontalStack=0;resizeParent=1;resizeParentMax=0;resizeLast=0;collapsible=1;marginBottom=0;whiteSpace=wrap;html=1;" parent="WIyWlLk6GJQsqaUBKTNV-1" vertex="1"><mxGeometry x="-600" y="150" width="160" height="86" as="geometry"><mxRectangle x="14" y="822" width="80" height="26" as="alternateBounds"/></mxGeometry></mxCell><mxCell id="eBTvOQhbbWVXLsYW8WIT-98" value="+ field: type" style="text;strokeColor=none;fillColor=none;align=left;verticalAlign=top;spacingLeft=4;spacingRight=4;overflow=hidden;rotatable=0;points=[[0,0.5],[1,0.5]];portConstraint=eastwest;whiteSpace=wrap;html=1;" parent="eBTvOQhbbWVXLsYW8WIT-97" vertex="1"><mxGeometry y="26" width="160" height="26" as="geometry"/></mxCell><mxCell id="eBTvOQhbbWVXLsYW8WIT-99" value="" style="line;strokeWidth=1;fillColor=none;align=left;verticalAlign=middle;spacingTop=-1;spacingLeft=3;spacingRight=3;rotatable=0;labelPosition=right;points=[];portConstraint=eastwest;strokeColor=inherit;" parent="eBTvOQhbbWVXLsYW8WIT-97" vertex="1"><mxGeometry y="52" width="160" height="8" as="geometry"/></mxCell><mxCell id="eBTvOQhbbWVXLsYW8WIT-100" value="+ method(type): type" style="text;strokeColor=none;fillColor=none;align=left;verticalAlign=top;spacingLeft=4;spacingRight=4;overflow=hidden;rotatable=0;points=[[0,0.5],[1,0.5]];portConstraint=eastwest;whiteSpace=wrap;html=1;" parent="eBTvOQhbbWVXLsYW8WIT-97" vertex="1"><mxGeometry y="60" width="160" height="26" as="geometry"/></mxCell><mxCell id="eBTvOQhbbWVXLsYW8WIT-102" value="" style="endArrow=none;html=1;rounded=0;" parent="WIyWlLk6GJQsqaUBKTNV-1" source="eBTvOQhbbWVXLsYW8WIT-79" target="eBTvOQhbbWVXLsYW8WIT-73" edge="1"><mxGeometry relative="1" as="geometry"><mxPoint x="226.5" y="-263" as="sourcePoint"/><mxPoint x="225.5" y="-343" as="targetPoint"/></mxGeometry></mxCell><mxCell id="eBTvOQhbbWVXLsYW8WIT-103" value="*" style="resizable=0;html=1;whiteSpace=wrap;align=left;verticalAlign=bottom;" parent="eBTvOQhbbWVXLsYW8WIT-102" connectable="0" vertex="1"><mxGeometry x="-1" relative="1" as="geometry"><mxPoint x="2" y="6" as="offset"/></mxGeometry></mxCell><mxCell id="eBTvOQhbbWVXLsYW8WIT-104" value="1" style="resizable=0;html=1;whiteSpace=wrap;align=right;verticalAlign=bottom;" parent="eBTvOQhbbWVXLsYW8WIT-102" connectable="0" vertex="1"><mxGeometry x="1" relative="1" as="geometry"><mxPoint y="-19" as="offset"/></mxGeometry></mxCell><mxCell id="eBTvOQhbbWVXLsYW8WIT-105" value="" style="endArrow=none;html=1;rounded=0;entryX=0.5;entryY=0;entryDx=0;entryDy=0;exitX=0.5;exitY=1;exitDx=0;exitDy=0;" parent="WIyWlLk6GJQsqaUBKTNV-1" source="eBTvOQhbbWVXLsYW8WIT-61" target="eBTvOQhbbWVXLsYW8WIT-73" edge="1"><mxGeometry relative="1" as="geometry"><mxPoint x="76" y="-357.67999999999995" as="sourcePoint"/><mxPoint x="410" y="-357.67999999999995" as="targetPoint"/></mxGeometry></mxCell><mxCell id="eBTvOQhbbWVXLsYW8WIT-106" value="1" style="resizable=0;html=1;whiteSpace=wrap;align=left;verticalAlign=bottom;" parent="eBTvOQhbbWVXLsYW8WIT-105" connectable="0" vertex="1"><mxGeometry x="-1" relative="1" as="geometry"><mxPoint x="-16" y="18" as="offset"/></mxGeometry></mxCell><mxCell id="eBTvOQhbbWVXLsYW8WIT-107" value="*" style="resizable=0;html=1;whiteSpace=wrap;align=right;verticalAlign=bottom;" parent="eBTvOQhbbWVXLsYW8WIT-105" connectable="0" vertex="1"><mxGeometry x="1" relative="1" as="geometry"><mxPoint x="-3" as="offset"/></mxGeometry></mxCell><mxCell id="eBTvOQhbbWVXLsYW8WIT-109" value="Store&lt;span style=&quot;background-color: initial;&quot;&gt;Rating&lt;/span&gt;" style="swimlane;fontStyle=1;align=center;verticalAlign=top;childLayout=stackLayout;horizontal=1;startSize=40;horizontalStack=0;resizeParent=1;resizeParentMax=0;resizeLast=0;collapsible=1;marginBottom=0;whiteSpace=wrap;html=1;" parent="WIyWlLk6GJQsqaUBKTNV-1" vertex="1"><mxGeometry x="804" y="-339" width="160" height="178" as="geometry"><mxRectangle x="850" y="502" width="94" height="27" as="alternateBounds"/></mxGeometry></mxCell><mxCell id="scS6lB70-Swo1higGm-x-31" value="+ field: type" style="text;strokeColor=none;fillColor=none;align=left;verticalAlign=top;spacingLeft=4;spacingRight=4;overflow=hidden;rotatable=0;points=[[0,0.5],[1,0.5]];portConstraint=eastwest;whiteSpace=wrap;html=1;" parent="eBTvOQhbbWVXLsYW8WIT-109" vertex="1"><mxGeometry y="40" width="160" height="26" as="geometry"/></mxCell><mxCell id="scS6lB70-Swo1higGm-x-35" value="+ field: type" style="text;strokeColor=none;fillColor=none;align=left;verticalAlign=top;spacingLeft=4;spacingRight=4;overflow=hidden;rotatable=0;points=[[0,0.5],[1,0.5]];portConstraint=eastwest;whiteSpace=wrap;html=1;" parent="eBTvOQhbbWVXLsYW8WIT-109" vertex="1"><mxGeometry y="66" width="160" height="26" as="geometry"/></mxCell><mxCell id="scS6lB70-Swo1higGm-x-32" value="" style="line;strokeWidth=1;fillColor=none;align=left;verticalAlign=middle;spacingTop=-1;spacingLeft=3;spacingRight=3;rotatable=0;labelPosition=right;points=[];portConstraint=eastwest;strokeColor=inherit;" parent="eBTvOQhbbWVXLsYW8WIT-109" vertex="1"><mxGeometry y="92" width="160" height="8" as="geometry"/></mxCell><mxCell id="scS6lB70-Swo1higGm-x-33" value="+ getReview()" style="text;strokeColor=none;fillColor=none;align=left;verticalAlign=top;spacingLeft=4;spacingRight=4;overflow=hidden;rotatable=0;points=[[0,0.5],[1,0.5]];portConstraint=eastwest;whiteSpace=wrap;html=1;" parent="eBTvOQhbbWVXLsYW8WIT-109" vertex="1"><mxGeometry y="100" width="160" height="26" as="geometry"/></mxCell><mxCell id="scS6lB70-Swo1higGm-x-34" value="+ showReview()" style="text;strokeColor=none;fillColor=none;align=left;verticalAlign=top;spacingLeft=4;spacingRight=4;overflow=hidden;rotatable=0;points=[[0,0.5],[1,0.5]];portConstraint=eastwest;whiteSpace=wrap;html=1;" parent="eBTvOQhbbWVXLsYW8WIT-109" vertex="1"><mxGeometry y="126" width="160" height="26" as="geometry"/></mxCell><mxCell id="OGeJCwvFa22-by8DKtIA-28" value="+ addReview()" style="text;strokeColor=none;fillColor=none;align=left;verticalAlign=top;spacingLeft=4;spacingRight=4;overflow=hidden;rotatable=0;points=[[0,0.5],[1,0.5]];portConstraint=eastwest;whiteSpace=wrap;html=1;" parent="eBTvOQhbbWVXLsYW8WIT-109" vertex="1"><mxGeometry y="152" width="160" height="26" as="geometry"/></mxCell><mxCell id="eBTvOQhbbWVXLsYW8WIT-112" value="" style="endArrow=none;html=1;rounded=0;entryX=0;entryY=0.5;entryDx=0;entryDy=0;" parent="WIyWlLk6GJQsqaUBKTNV-1" source="eBTvOQhbbWVXLsYW8WIT-73" target="eBTvOQhbbWVXLsYW8WIT-109" edge="1"><mxGeometry relative="1" as="geometry"><mxPoint x="546.5" y="-428.5" as="sourcePoint"/><mxPoint x="545.5" y="-310.5" as="targetPoint"/></mxGeometry></mxCell><mxCell id="eBTvOQhbbWVXLsYW8WIT-113" value="1" style="resizable=0;html=1;whiteSpace=wrap;align=left;verticalAlign=bottom;" parent="eBTvOQhbbWVXLsYW8WIT-112" connectable="0" vertex="1"><mxGeometry x="-1" relative="1" as="geometry"><mxPoint x="10" y="-3" as="offset"/></mxGeometry></mxCell><mxCell id="eBTvOQhbbWVXLsYW8WIT-114" value="*" style="resizable=0;html=1;whiteSpace=wrap;align=right;verticalAlign=bottom;" parent="eBTvOQhbbWVXLsYW8WIT-112" connectable="0" vertex="1"><mxGeometry x="1" relative="1" as="geometry"><mxPoint x="-3" as="offset"/></mxGeometry></mxCell><mxCell id="eBTvOQhbbWVXLsYW8WIT-115" value="" style="endArrow=none;html=1;rounded=0;entryX=0.5;entryY=0;entryDx=0;entryDy=0;" parent="WIyWlLk6GJQsqaUBKTNV-1" source="eBTvOQhbbWVXLsYW8WIT-57" target="eBTvOQhbbWVXLsYW8WIT-109" edge="1"><mxGeometry relative="1" as="geometry"><mxPoint x="526.5" y="-404.5" as="sourcePoint"/><mxPoint x="621.5" y="-405.5" as="targetPoint"/></mxGeometry></mxCell><mxCell id="eBTvOQhbbWVXLsYW8WIT-116" value="1" style="resizable=0;html=1;whiteSpace=wrap;align=left;verticalAlign=bottom;" parent="eBTvOQhbbWVXLsYW8WIT-115" connectable="0" vertex="1"><mxGeometry x="-1" relative="1" as="geometry"><mxPoint x="-13" y="24" as="offset"/></mxGeometry></mxCell><mxCell id="eBTvOQhbbWVXLsYW8WIT-117" value="*" style="resizable=0;html=1;whiteSpace=wrap;align=right;verticalAlign=bottom;" parent="eBTvOQhbbWVXLsYW8WIT-115" connectable="0" vertex="1"><mxGeometry x="1" relative="1" as="geometry"><mxPoint x="-3" as="offset"/></mxGeometry></mxCell><mxCell id="eBTvOQhbbWVXLsYW8WIT-118" value="Menu" style="swimlane;fontStyle=1;align=center;verticalAlign=top;childLayout=stackLayout;horizontal=1;startSize=26;horizontalStack=0;resizeParent=1;resizeParentMax=0;resizeLast=0;collapsible=1;marginBottom=0;whiteSpace=wrap;html=1;" parent="WIyWlLk6GJQsqaUBKTNV-1" vertex="1"><mxGeometry x="703.93" y="280" width="160" height="86" as="geometry"><mxRectangle x="500.5" y="628" width="70" height="26" as="alternateBounds"/></mxGeometry></mxCell><mxCell id="eBTvOQhbbWVXLsYW8WIT-119" value="+ field: type" style="text;strokeColor=none;fillColor=none;align=left;verticalAlign=top;spacingLeft=4;spacingRight=4;overflow=hidden;rotatable=0;points=[[0,0.5],[1,0.5]];portConstraint=eastwest;whiteSpace=wrap;html=1;" parent="eBTvOQhbbWVXLsYW8WIT-118" vertex="1"><mxGeometry y="26" width="160" height="26" as="geometry"/></mxCell><mxCell id="eBTvOQhbbWVXLsYW8WIT-120" value="" style="line;strokeWidth=1;fillColor=none;align=left;verticalAlign=middle;spacingTop=-1;spacingLeft=3;spacingRight=3;rotatable=0;labelPosition=right;points=[];portConstraint=eastwest;strokeColor=inherit;" parent="eBTvOQhbbWVXLsYW8WIT-118" vertex="1"><mxGeometry y="52" width="160" height="8" as="geometry"/></mxCell><mxCell id="eBTvOQhbbWVXLsYW8WIT-121" value="+ getMenu(): Menu" style="text;strokeColor=none;fillColor=none;align=left;verticalAlign=top;spacingLeft=4;spacingRight=4;overflow=hidden;rotatable=0;points=[[0,0.5],[1,0.5]];portConstraint=eastwest;whiteSpace=wrap;html=1;" parent="eBTvOQhbbWVXLsYW8WIT-118" vertex="1"><mxGeometry y="60" width="160" height="26" as="geometry"/></mxCell><mxCell id="eBTvOQhbbWVXLsYW8WIT-122" value="Item" style="swimlane;fontStyle=1;align=center;verticalAlign=top;childLayout=stackLayout;horizontal=1;startSize=26;horizontalStack=0;resizeParent=1;resizeParentMax=0;resizeLast=0;collapsible=1;marginBottom=0;whiteSpace=wrap;html=1;" parent="WIyWlLk6GJQsqaUBKTNV-1" vertex="1"><mxGeometry x="283.99999999999994" y="490" width="160" height="138" as="geometry"><mxRectangle x="499.5" y="760" width="72" height="26" as="alternateBounds"/></mxGeometry></mxCell><mxCell id="eBTvOQhbbWVXLsYW8WIT-123" value="+ field: type" style="text;strokeColor=none;fillColor=none;align=left;verticalAlign=top;spacingLeft=4;spacingRight=4;overflow=hidden;rotatable=0;points=[[0,0.5],[1,0.5]];portConstraint=eastwest;whiteSpace=wrap;html=1;" parent="eBTvOQhbbWVXLsYW8WIT-122" vertex="1"><mxGeometry y="26" width="160" height="26" as="geometry"/></mxCell><mxCell id="eBTvOQhbbWVXLsYW8WIT-124" value="" style="line;strokeWidth=1;fillColor=none;align=left;verticalAlign=middle;spacingTop=-1;spacingLeft=3;spacingRight=3;rotatable=0;labelPosition=right;points=[];portConstraint=eastwest;strokeColor=inherit;" parent="eBTvOQhbbWVXLsYW8WIT-122" vertex="1"><mxGeometry y="52" width="160" height="8" as="geometry"/></mxCell><mxCell id="38" value="+ updateItem(): void&lt;br&gt;" style="text;strokeColor=none;fillColor=none;align=left;verticalAlign=top;spacingLeft=4;spacingRight=4;overflow=hidden;rotatable=0;points=[[0,0.5],[1,0.5]];portConstraint=eastwest;whiteSpace=wrap;html=1;" vertex="1" parent="eBTvOQhbbWVXLsYW8WIT-122"><mxGeometry y="60" width="160" height="26" as="geometry"/></mxCell><mxCell id="39" value="&lt;div&gt;+ setLowerLimit(): void&lt;/div&gt;&lt;div&gt;&lt;br&gt;&lt;/div&gt;" style="text;strokeColor=none;fillColor=none;align=left;verticalAlign=top;spacingLeft=4;spacingRight=4;overflow=hidden;rotatable=0;points=[[0,0.5],[1,0.5]];portConstraint=eastwest;whiteSpace=wrap;html=1;" vertex="1" parent="eBTvOQhbbWVXLsYW8WIT-122"><mxGeometry y="86" width="160" height="26" as="geometry"/></mxCell><mxCell id="40" value="+ setHigherLimit(): void" style="text;strokeColor=none;fillColor=none;align=left;verticalAlign=top;spacingLeft=4;spacingRight=4;overflow=hidden;rotatable=0;points=[[0,0.5],[1,0.5]];portConstraint=eastwest;whiteSpace=wrap;html=1;" vertex="1" parent="eBTvOQhbbWVXLsYW8WIT-122"><mxGeometry y="112" width="160" height="26" as="geometry"/></mxCell><mxCell id="eBTvOQhbbWVXLsYW8WIT-126" value="" style="endArrow=diamondThin;endFill=0;endSize=24;html=1;rounded=0;" parent="WIyWlLk6GJQsqaUBKTNV-1" source="eBTvOQhbbWVXLsYW8WIT-122" target="wCl5vX7TFLa7LNLCwY4E-21" edge="1"><mxGeometry width="160" relative="1" as="geometry"><mxPoint x="794.4300000000001" y="407.9999999999998" as="sourcePoint"/><mxPoint x="739.4300000000001" y="329.9999999999998" as="targetPoint"/></mxGeometry></mxCell><mxCell id="eBTvOQhbbWVXLsYW8WIT-127" value="" style="endArrow=none;html=1;rounded=0;entryX=0.5;entryY=0;entryDx=0;entryDy=0;" parent="WIyWlLk6GJQsqaUBKTNV-1" source="eBTvOQhbbWVXLsYW8WIT-73" target="eBTvOQhbbWVXLsYW8WIT-118" edge="1"><mxGeometry relative="1" as="geometry"><mxPoint x="526.5" y="-244" as="sourcePoint"/><mxPoint x="526.5" y="-126" as="targetPoint"/></mxGeometry></mxCell><mxCell id="eBTvOQhbbWVXLsYW8WIT-128" value="1" style="resizable=0;html=1;whiteSpace=wrap;align=left;verticalAlign=bottom;" parent="eBTvOQhbbWVXLsYW8WIT-127" connectable="0" vertex="1"><mxGeometry x="-1" relative="1" as="geometry"><mxPoint x="22" y="49" as="offset"/></mxGeometry></mxCell><mxCell id="eBTvOQhbbWVXLsYW8WIT-129" value="*" style="resizable=0;html=1;whiteSpace=wrap;align=right;verticalAlign=bottom;" parent="eBTvOQhbbWVXLsYW8WIT-127" connectable="0" vertex="1"><mxGeometry x="1" relative="1" as="geometry"><mxPoint x="-3" as="offset"/></mxGeometry></mxCell><mxCell id="eBTvOQhbbWVXLsYW8WIT-130" value="Order" style="swimlane;fontStyle=1;align=center;verticalAlign=top;childLayout=stackLayout;horizontal=1;startSize=26;horizontalStack=0;resizeParent=1;resizeParentMax=0;resizeLast=0;collapsible=1;marginBottom=0;whiteSpace=wrap;html=1;" parent="WIyWlLk6GJQsqaUBKTNV-1" vertex="1"><mxGeometry x="284" y="693.9999999999998" width="160" height="86" as="geometry"><mxRectangle x="502.5" y="980" width="66" height="26" as="alternateBounds"/></mxGeometry></mxCell><mxCell id="scS6lB70-Swo1higGm-x-74" value="+ field: type" style="text;strokeColor=none;fillColor=none;align=left;verticalAlign=top;spacingLeft=4;spacingRight=4;overflow=hidden;rotatable=0;points=[[0,0.5],[1,0.5]];portConstraint=eastwest;whiteSpace=wrap;html=1;" parent="eBTvOQhbbWVXLsYW8WIT-130" vertex="1"><mxGeometry y="26" width="160" height="26" as="geometry"/></mxCell><mxCell id="scS6lB70-Swo1higGm-x-76" value="" style="line;strokeWidth=1;fillColor=none;align=left;verticalAlign=middle;spacingTop=-1;spacingLeft=3;spacingRight=3;rotatable=0;labelPosition=right;points=[];portConstraint=eastwest;strokeColor=inherit;" parent="eBTvOQhbbWVXLsYW8WIT-130" vertex="1"><mxGeometry y="52" width="160" height="8" as="geometry"/></mxCell><mxCell id="scS6lB70-Swo1higGm-x-75" value="+ createOrder(): void" style="text;strokeColor=none;fillColor=none;align=left;verticalAlign=top;spacingLeft=4;spacingRight=4;overflow=hidden;rotatable=0;points=[[0,0.5],[1,0.5]];portConstraint=eastwest;whiteSpace=wrap;html=1;" parent="eBTvOQhbbWVXLsYW8WIT-130" vertex="1"><mxGeometry y="60" width="160" height="26" as="geometry"/></mxCell><mxCell id="eBTvOQhbbWVXLsYW8WIT-133" value="" style="endArrow=none;html=1;rounded=0;entryX=1;entryY=0.5;entryDx=0;entryDy=0;" parent="WIyWlLk6GJQsqaUBKTNV-1" source="eBTvOQhbbWVXLsYW8WIT-57" target="eBTvOQhbbWVXLsYW8WIT-130" edge="1"><mxGeometry relative="1" as="geometry"><mxPoint x="726" y="-540" as="sourcePoint"/><mxPoint x="726" y="-313" as="targetPoint"/><Array as="points"><mxPoint x="1364" y="-570"/><mxPoint x="1364" y="750"/></Array></mxGeometry></mxCell><mxCell id="eBTvOQhbbWVXLsYW8WIT-134" value="1" style="resizable=0;html=1;whiteSpace=wrap;align=left;verticalAlign=bottom;" parent="eBTvOQhbbWVXLsYW8WIT-133" connectable="0" vertex="1"><mxGeometry x="-1" relative="1" as="geometry"><mxPoint x="3" y="24" as="offset"/></mxGeometry></mxCell><mxCell id="eBTvOQhbbWVXLsYW8WIT-135" value="*" style="resizable=0;html=1;whiteSpace=wrap;align=right;verticalAlign=bottom;" parent="eBTvOQhbbWVXLsYW8WIT-133" connectable="0" vertex="1"><mxGeometry x="1" relative="1" as="geometry"><mxPoint x="14" as="offset"/></mxGeometry></mxCell><mxCell id="eBTvOQhbbWVXLsYW8WIT-141" value="Reservation" style="swimlane;fontStyle=1;align=center;verticalAlign=top;childLayout=stackLayout;horizontal=1;startSize=26;horizontalStack=0;resizeParent=1;resizeParentMax=0;resizeLast=0;collapsible=1;marginBottom=0;whiteSpace=wrap;html=1;" parent="WIyWlLk6GJQsqaUBKTNV-1" vertex="1"><mxGeometry x="784" y="780" width="200" height="168" as="geometry"><mxRectangle x="579" y="960" width="94" height="26" as="alternateBounds"/></mxGeometry></mxCell><mxCell id="scS6lB70-Swo1higGm-x-77" value="+ field: type" style="text;strokeColor=none;fillColor=none;align=left;verticalAlign=top;spacingLeft=4;spacingRight=4;overflow=hidden;rotatable=0;points=[[0,0.5],[1,0.5]];portConstraint=eastwest;whiteSpace=wrap;html=1;" parent="eBTvOQhbbWVXLsYW8WIT-141" vertex="1"><mxGeometry y="26" width="200" height="26" as="geometry"/></mxCell><mxCell id="scS6lB70-Swo1higGm-x-78" value="" style="line;strokeWidth=1;fillColor=none;align=left;verticalAlign=middle;spacingTop=-1;spacingLeft=3;spacingRight=3;rotatable=0;labelPosition=right;points=[];portConstraint=eastwest;strokeColor=inherit;" parent="eBTvOQhbbWVXLsYW8WIT-141" vertex="1"><mxGeometry y="52" width="200" height="8" as="geometry"/></mxCell><mxCell id="scS6lB70-Swo1higGm-x-79" value="+ getReservation(): Reservation" style="text;strokeColor=none;fillColor=none;align=left;verticalAlign=top;spacingLeft=4;spacingRight=4;overflow=hidden;rotatable=0;points=[[0,0.5],[1,0.5]];portConstraint=eastwest;whiteSpace=wrap;html=1;" parent="eBTvOQhbbWVXLsYW8WIT-141" vertex="1"><mxGeometry y="60" width="200" height="30" as="geometry"/></mxCell><mxCell id="OGeJCwvFa22-by8DKtIA-32" value="+ checkAvailability()&lt;div&gt;&lt;br&gt;&lt;/div&gt;" style="text;strokeColor=none;fillColor=none;align=left;verticalAlign=top;spacingLeft=4;spacingRight=4;overflow=hidden;rotatable=0;points=[[0,0.5],[1,0.5]];portConstraint=eastwest;whiteSpace=wrap;html=1;" parent="eBTvOQhbbWVXLsYW8WIT-141" vertex="1"><mxGeometry y="90" width="200" height="26" as="geometry"/></mxCell><mxCell id="OGeJCwvFa22-by8DKtIA-33" value="+ isReserved()" style="text;strokeColor=none;fillColor=none;align=left;verticalAlign=top;spacingLeft=4;spacingRight=4;overflow=hidden;rotatable=0;points=[[0,0.5],[1,0.5]];portConstraint=eastwest;whiteSpace=wrap;html=1;" parent="eBTvOQhbbWVXLsYW8WIT-141" vertex="1"><mxGeometry y="116" width="200" height="26" as="geometry"/></mxCell><mxCell id="OGeJCwvFa22-by8DKtIA-34" value="+ addReservation()" style="text;strokeColor=none;fillColor=none;align=left;verticalAlign=top;spacingLeft=4;spacingRight=4;overflow=hidden;rotatable=0;points=[[0,0.5],[1,0.5]];portConstraint=eastwest;whiteSpace=wrap;html=1;" parent="eBTvOQhbbWVXLsYW8WIT-141" vertex="1"><mxGeometry y="142" width="200" height="26" as="geometry"/></mxCell><mxCell id="eBTvOQhbbWVXLsYW8WIT-144" value="" style="endArrow=none;html=1;rounded=0;entryX=1;entryY=0.5;entryDx=0;entryDy=0;" parent="WIyWlLk6GJQsqaUBKTNV-1" source="eBTvOQhbbWVXLsYW8WIT-57" target="eBTvOQhbbWVXLsYW8WIT-141" edge="1"><mxGeometry relative="1" as="geometry"><mxPoint x="767" y="-550" as="sourcePoint"/><mxPoint x="756" y="-128" as="targetPoint"/><Array as="points"><mxPoint x="1314" y="-480"/><mxPoint x="1324" y="870"/></Array></mxGeometry></mxCell><mxCell id="eBTvOQhbbWVXLsYW8WIT-145" value="1" style="resizable=0;html=1;whiteSpace=wrap;align=left;verticalAlign=bottom;" parent="eBTvOQhbbWVXLsYW8WIT-144" connectable="0" vertex="1"><mxGeometry x="-1" relative="1" as="geometry"><mxPoint x="3" y="24" as="offset"/></mxGeometry></mxCell><mxCell id="eBTvOQhbbWVXLsYW8WIT-146" value="*" style="resizable=0;html=1;whiteSpace=wrap;align=right;verticalAlign=bottom;" parent="eBTvOQhbbWVXLsYW8WIT-144" connectable="0" vertex="1"><mxGeometry x="1" relative="1" as="geometry"><mxPoint x="14" as="offset"/></mxGeometry></mxCell><mxCell id="eBTvOQhbbWVXLsYW8WIT-156" value="Subscription" style="swimlane;fontStyle=1;align=center;verticalAlign=top;childLayout=stackLayout;horizontal=1;startSize=26;horizontalStack=0;resizeParent=1;resizeParentMax=0;resizeLast=0;collapsible=1;marginBottom=0;whiteSpace=wrap;html=1;" parent="WIyWlLk6GJQsqaUBKTNV-1" vertex="1"><mxGeometry x="604" y="-490" width="160" height="138" as="geometry"><mxRectangle x="582" y="456" width="100" height="26" as="alternateBounds"/></mxGeometry></mxCell><mxCell id="eBTvOQhbbWVXLsYW8WIT-157" value="+ field: type" style="text;strokeColor=none;fillColor=none;align=left;verticalAlign=top;spacingLeft=4;spacingRight=4;overflow=hidden;rotatable=0;points=[[0,0.5],[1,0.5]];portConstraint=eastwest;whiteSpace=wrap;html=1;" parent="eBTvOQhbbWVXLsYW8WIT-156" vertex="1"><mxGeometry y="26" width="160" height="26" as="geometry"/></mxCell><mxCell id="scS6lB70-Swo1higGm-x-37" value="+ field: type" style="text;strokeColor=none;fillColor=none;align=left;verticalAlign=top;spacingLeft=4;spacingRight=4;overflow=hidden;rotatable=0;points=[[0,0.5],[1,0.5]];portConstraint=eastwest;whiteSpace=wrap;html=1;" parent="eBTvOQhbbWVXLsYW8WIT-156" vertex="1"><mxGeometry y="52" width="160" height="26" as="geometry"/></mxCell><mxCell id="eBTvOQhbbWVXLsYW8WIT-158" value="" style="line;strokeWidth=1;fillColor=none;align=left;verticalAlign=middle;spacingTop=-1;spacingLeft=3;spacingRight=3;rotatable=0;labelPosition=right;points=[];portConstraint=eastwest;strokeColor=inherit;" parent="eBTvOQhbbWVXLsYW8WIT-156" vertex="1"><mxGeometry y="78" width="160" height="8" as="geometry"/></mxCell><mxCell id="eBTvOQhbbWVXLsYW8WIT-159" value="+ method(type): type" style="text;strokeColor=none;fillColor=none;align=left;verticalAlign=top;spacingLeft=4;spacingRight=4;overflow=hidden;rotatable=0;points=[[0,0.5],[1,0.5]];portConstraint=eastwest;whiteSpace=wrap;html=1;" parent="eBTvOQhbbWVXLsYW8WIT-156" vertex="1"><mxGeometry y="86" width="160" height="26" as="geometry"/></mxCell><mxCell id="scS6lB70-Swo1higGm-x-36" value="+ method(type): type" style="text;strokeColor=none;fillColor=none;align=left;verticalAlign=top;spacingLeft=4;spacingRight=4;overflow=hidden;rotatable=0;points=[[0,0.5],[1,0.5]];portConstraint=eastwest;whiteSpace=wrap;html=1;" parent="eBTvOQhbbWVXLsYW8WIT-156" vertex="1"><mxGeometry y="112" width="160" height="26" as="geometry"/></mxCell><mxCell id="eBTvOQhbbWVXLsYW8WIT-160" value="" style="endArrow=none;html=1;rounded=0;entryX=0;entryY=1;entryDx=0;entryDy=0;" parent="WIyWlLk6GJQsqaUBKTNV-1" source="eBTvOQhbbWVXLsYW8WIT-73" target="eBTvOQhbbWVXLsYW8WIT-156" edge="1"><mxGeometry relative="1" as="geometry"><mxPoint x="465" y="-420" as="sourcePoint"/><mxPoint x="465" y="-302" as="targetPoint"/></mxGeometry></mxCell><mxCell id="eBTvOQhbbWVXLsYW8WIT-161" value="1" style="resizable=0;html=1;whiteSpace=wrap;align=left;verticalAlign=bottom;" parent="eBTvOQhbbWVXLsYW8WIT-160" connectable="0" vertex="1"><mxGeometry x="-1" relative="1" as="geometry"><mxPoint x="-16" as="offset"/></mxGeometry></mxCell><mxCell id="eBTvOQhbbWVXLsYW8WIT-162" value="*" style="resizable=0;html=1;whiteSpace=wrap;align=right;verticalAlign=bottom;" parent="eBTvOQhbbWVXLsYW8WIT-160" connectable="0" vertex="1"><mxGeometry x="1" relative="1" as="geometry"><mxPoint x="-3" y="18" as="offset"/></mxGeometry></mxCell><mxCell id="eBTvOQhbbWVXLsYW8WIT-163" value="" style="endArrow=none;html=1;rounded=0;exitX=0;exitY=1;exitDx=0;exitDy=0;entryX=0.5;entryY=0;entryDx=0;entryDy=0;" parent="WIyWlLk6GJQsqaUBKTNV-1" source="eBTvOQhbbWVXLsYW8WIT-57" target="eBTvOQhbbWVXLsYW8WIT-156" edge="1"><mxGeometry relative="1" as="geometry"><mxPoint x="576" y="-526" as="sourcePoint"/><mxPoint x="596" y="-416" as="targetPoint"/></mxGeometry></mxCell><mxCell id="eBTvOQhbbWVXLsYW8WIT-164" value="1" style="resizable=0;html=1;whiteSpace=wrap;align=left;verticalAlign=bottom;" parent="eBTvOQhbbWVXLsYW8WIT-163" connectable="0" vertex="1"><mxGeometry x="-1" relative="1" as="geometry"><mxPoint x="-16" y="24" as="offset"/></mxGeometry></mxCell><mxCell id="eBTvOQhbbWVXLsYW8WIT-165" value="*" style="resizable=0;html=1;whiteSpace=wrap;align=right;verticalAlign=bottom;" parent="eBTvOQhbbWVXLsYW8WIT-163" connectable="0" vertex="1"><mxGeometry x="1" relative="1" as="geometry"><mxPoint x="-3" as="offset"/></mxGeometry></mxCell><mxCell id="eBTvOQhbbWVXLsYW8WIT-176" value="TaskList" style="swimlane;fontStyle=1;align=center;verticalAlign=top;childLayout=stackLayout;horizontal=1;startSize=26;horizontalStack=0;resizeParent=1;resizeParentMax=0;resizeLast=0;collapsible=1;marginBottom=0;whiteSpace=wrap;html=1;" parent="WIyWlLk6GJQsqaUBKTNV-1" vertex="1"><mxGeometry x="-120" y="160" width="160" height="86" as="geometry"><mxRectangle x="63" y="680" width="83" height="26" as="alternateBounds"/></mxGeometry></mxCell><mxCell id="scS6lB70-Swo1higGm-x-29" value="+ field: type" style="text;strokeColor=none;fillColor=none;align=left;verticalAlign=top;spacingLeft=4;spacingRight=4;overflow=hidden;rotatable=0;points=[[0,0.5],[1,0.5]];portConstraint=eastwest;whiteSpace=wrap;html=1;" parent="eBTvOQhbbWVXLsYW8WIT-176" vertex="1"><mxGeometry y="26" width="160" height="26" as="geometry"/></mxCell><mxCell id="eBTvOQhbbWVXLsYW8WIT-178" value="" style="line;strokeWidth=1;fillColor=none;align=left;verticalAlign=middle;spacingTop=-1;spacingLeft=3;spacingRight=3;rotatable=0;labelPosition=right;points=[];portConstraint=eastwest;strokeColor=inherit;" parent="eBTvOQhbbWVXLsYW8WIT-176" vertex="1"><mxGeometry y="52" width="160" height="8" as="geometry"/></mxCell><mxCell id="scS6lB70-Swo1higGm-x-30" value="+ method(type): type" style="text;strokeColor=none;fillColor=none;align=left;verticalAlign=top;spacingLeft=4;spacingRight=4;overflow=hidden;rotatable=0;points=[[0,0.5],[1,0.5]];portConstraint=eastwest;whiteSpace=wrap;html=1;" parent="eBTvOQhbbWVXLsYW8WIT-176" vertex="1"><mxGeometry y="60" width="160" height="26" as="geometry"/></mxCell><mxCell id="eBTvOQhbbWVXLsYW8WIT-190" value="Table" style="swimlane;fontStyle=1;align=center;verticalAlign=top;childLayout=stackLayout;horizontal=1;startSize=26;horizontalStack=0;resizeParent=1;resizeParentMax=0;resizeLast=0;collapsible=1;marginBottom=0;whiteSpace=wrap;html=1;" parent="WIyWlLk6GJQsqaUBKTNV-1" vertex="1"><mxGeometry x="744" y="100" width="160" height="86" as="geometry"><mxRectangle x="297" y="654" width="70" height="26" as="alternateBounds"/></mxGeometry></mxCell><mxCell id="scS6lB70-Swo1higGm-x-81" value="+ field: type" style="text;strokeColor=none;fillColor=none;align=left;verticalAlign=top;spacingLeft=4;spacingRight=4;overflow=hidden;rotatable=0;points=[[0,0.5],[1,0.5]];portConstraint=eastwest;whiteSpace=wrap;html=1;" parent="eBTvOQhbbWVXLsYW8WIT-190" vertex="1"><mxGeometry y="26" width="160" height="26" as="geometry"/></mxCell><mxCell id="scS6lB70-Swo1higGm-x-83" value="" style="line;strokeWidth=1;fillColor=none;align=left;verticalAlign=middle;spacingTop=-1;spacingLeft=3;spacingRight=3;rotatable=0;labelPosition=right;points=[];portConstraint=eastwest;strokeColor=inherit;" parent="eBTvOQhbbWVXLsYW8WIT-190" vertex="1"><mxGeometry y="52" width="160" height="8" as="geometry"/></mxCell><mxCell id="scS6lB70-Swo1higGm-x-82" value="+ method(type): type" style="text;strokeColor=none;fillColor=none;align=left;verticalAlign=top;spacingLeft=4;spacingRight=4;overflow=hidden;rotatable=0;points=[[0,0.5],[1,0.5]];portConstraint=eastwest;whiteSpace=wrap;html=1;" parent="eBTvOQhbbWVXLsYW8WIT-190" vertex="1"><mxGeometry y="60" width="160" height="26" as="geometry"/></mxCell><mxCell id="eBTvOQhbbWVXLsYW8WIT-212" value="" style="endArrow=none;html=1;rounded=0;" parent="WIyWlLk6GJQsqaUBKTNV-1" source="eBTvOQhbbWVXLsYW8WIT-73" target="eBTvOQhbbWVXLsYW8WIT-190" edge="1"><mxGeometry relative="1" as="geometry"><mxPoint x="256.5" y="-186" as="sourcePoint"/><mxPoint x="256.5" y="-118" as="targetPoint"/></mxGeometry></mxCell><mxCell id="eBTvOQhbbWVXLsYW8WIT-219" value="" style="endArrow=none;html=1;rounded=0;exitX=0;exitY=0.5;exitDx=0;exitDy=0;" parent="WIyWlLk6GJQsqaUBKTNV-1" source="eBTvOQhbbWVXLsYW8WIT-176" target="eBTvOQhbbWVXLsYW8WIT-79" edge="1"><mxGeometry relative="1" as="geometry"><mxPoint x="181" y="-325.28999999999996" as="sourcePoint"/><mxPoint x="266" y="-258.5" as="targetPoint"/></mxGeometry></mxCell><mxCell id="eBTvOQhbbWVXLsYW8WIT-220" value="1" style="resizable=0;html=1;whiteSpace=wrap;align=left;verticalAlign=bottom;" parent="eBTvOQhbbWVXLsYW8WIT-219" connectable="0" vertex="1"><mxGeometry x="-1" relative="1" as="geometry"><mxPoint x="-15" y="-8" as="offset"/></mxGeometry></mxCell><mxCell id="eBTvOQhbbWVXLsYW8WIT-221" value="1" style="resizable=0;html=1;whiteSpace=wrap;align=right;verticalAlign=bottom;" parent="eBTvOQhbbWVXLsYW8WIT-219" connectable="0" vertex="1"><mxGeometry x="1" relative="1" as="geometry"><mxPoint x="25" y="19" as="offset"/></mxGeometry></mxCell><mxCell id="eBTvOQhbbWVXLsYW8WIT-230" value="GeneralTask" style="swimlane;fontStyle=1;align=center;verticalAlign=top;childLayout=stackLayout;horizontal=1;startSize=26;horizontalStack=0;resizeParent=1;resizeParentMax=0;resizeLast=0;collapsible=1;marginBottom=0;whiteSpace=wrap;html=1;" parent="WIyWlLk6GJQsqaUBKTNV-1" vertex="1"><mxGeometry x="-120" y="320" width="160" height="138" as="geometry"><mxRectangle x="90.5" y="814" width="105" height="26" as="alternateBounds"/></mxGeometry></mxCell><mxCell id="eBTvOQhbbWVXLsYW8WIT-231" value="+ field: type" style="text;strokeColor=none;fillColor=none;align=left;verticalAlign=top;spacingLeft=4;spacingRight=4;overflow=hidden;rotatable=0;points=[[0,0.5],[1,0.5]];portConstraint=eastwest;whiteSpace=wrap;html=1;" parent="eBTvOQhbbWVXLsYW8WIT-230" vertex="1"><mxGeometry y="26" width="160" height="26" as="geometry"/></mxCell><mxCell id="eBTvOQhbbWVXLsYW8WIT-232" value="" style="line;strokeWidth=1;fillColor=none;align=left;verticalAlign=middle;spacingTop=-1;spacingLeft=3;spacingRight=3;rotatable=0;labelPosition=right;points=[];portConstraint=eastwest;strokeColor=inherit;" parent="eBTvOQhbbWVXLsYW8WIT-230" vertex="1"><mxGeometry y="52" width="160" height="8" as="geometry"/></mxCell><mxCell id="eBTvOQhbbWVXLsYW8WIT-233" value="+ setTask()" style="text;strokeColor=none;fillColor=none;align=left;verticalAlign=top;spacingLeft=4;spacingRight=4;overflow=hidden;rotatable=0;points=[[0,0.5],[1,0.5]];portConstraint=eastwest;whiteSpace=wrap;html=1;" parent="eBTvOQhbbWVXLsYW8WIT-230" vertex="1"><mxGeometry y="60" width="160" height="26" as="geometry"/></mxCell><mxCell id="OGeJCwvFa22-by8DKtIA-29" value="+ addTask()" style="text;strokeColor=none;fillColor=none;align=left;verticalAlign=top;spacingLeft=4;spacingRight=4;overflow=hidden;rotatable=0;points=[[0,0.5],[1,0.5]];portConstraint=eastwest;whiteSpace=wrap;html=1;" parent="eBTvOQhbbWVXLsYW8WIT-230" vertex="1"><mxGeometry y="86" width="160" height="26" as="geometry"/></mxCell><mxCell id="OGeJCwvFa22-by8DKtIA-30" value="+ return()" style="text;strokeColor=none;fillColor=none;align=left;verticalAlign=top;spacingLeft=4;spacingRight=4;overflow=hidden;rotatable=0;points=[[0,0.5],[1,0.5]];portConstraint=eastwest;whiteSpace=wrap;html=1;" parent="eBTvOQhbbWVXLsYW8WIT-230" vertex="1"><mxGeometry y="112" width="160" height="26" as="geometry"/></mxCell><mxCell id="eBTvOQhbbWVXLsYW8WIT-234" value="" style="endArrow=diamondThin;endFill=0;endSize=24;html=1;rounded=0;entryX=0.5;entryY=1;entryDx=0;entryDy=0;" parent="WIyWlLk6GJQsqaUBKTNV-1" source="eBTvOQhbbWVXLsYW8WIT-230" target="eBTvOQhbbWVXLsYW8WIT-176" edge="1"><mxGeometry width="160" relative="1" as="geometry"><mxPoint x="593" y="-40" as="sourcePoint"/><mxPoint x="296" y="45" as="targetPoint"/></mxGeometry></mxCell><mxCell id="eBTvOQhbbWVXLsYW8WIT-235" value="Timetable" style="swimlane;fontStyle=1;align=center;verticalAlign=top;childLayout=stackLayout;horizontal=1;startSize=26;horizontalStack=0;resizeParent=1;resizeParentMax=0;resizeLast=0;collapsible=1;marginBottom=0;whiteSpace=wrap;html=1;" parent="WIyWlLk6GJQsqaUBKTNV-1" vertex="1"><mxGeometry x="-86" y="-544" width="160" height="190" as="geometry"><mxRectangle x="180" y="350" width="87" height="26" as="alternateBounds"/></mxGeometry></mxCell><mxCell id="eBTvOQhbbWVXLsYW8WIT-236" value="+ field: type" style="text;strokeColor=none;fillColor=none;align=left;verticalAlign=top;spacingLeft=4;spacingRight=4;overflow=hidden;rotatable=0;points=[[0,0.5],[1,0.5]];portConstraint=eastwest;whiteSpace=wrap;html=1;" parent="eBTvOQhbbWVXLsYW8WIT-235" vertex="1"><mxGeometry y="26" width="160" height="26" as="geometry"/></mxCell><mxCell id="eBTvOQhbbWVXLsYW8WIT-237" value="" style="line;strokeWidth=1;fillColor=none;align=left;verticalAlign=middle;spacingTop=-1;spacingLeft=3;spacingRight=3;rotatable=0;labelPosition=right;points=[];portConstraint=eastwest;strokeColor=inherit;" parent="eBTvOQhbbWVXLsYW8WIT-235" vertex="1"><mxGeometry y="52" width="160" height="8" as="geometry"/></mxCell><mxCell id="eBTvOQhbbWVXLsYW8WIT-238" value="+ getEvents()" style="text;strokeColor=none;fillColor=none;align=left;verticalAlign=top;spacingLeft=4;spacingRight=4;overflow=hidden;rotatable=0;points=[[0,0.5],[1,0.5]];portConstraint=eastwest;whiteSpace=wrap;html=1;" parent="eBTvOQhbbWVXLsYW8WIT-235" vertex="1"><mxGeometry y="60" width="160" height="26" as="geometry"/></mxCell><mxCell id="19" value="+ fetchEvent()" style="text;strokeColor=none;fillColor=none;align=left;verticalAlign=top;spacingLeft=4;spacingRight=4;overflow=hidden;rotatable=0;points=[[0,0.5],[1,0.5]];portConstraint=eastwest;whiteSpace=wrap;html=1;" parent="eBTvOQhbbWVXLsYW8WIT-235" vertex="1"><mxGeometry y="86" width="160" height="26" as="geometry"/></mxCell><mxCell id="20" value="+ updateEvent()" style="text;strokeColor=none;fillColor=none;align=left;verticalAlign=top;spacingLeft=4;spacingRight=4;overflow=hidden;rotatable=0;points=[[0,0.5],[1,0.5]];portConstraint=eastwest;whiteSpace=wrap;html=1;" parent="eBTvOQhbbWVXLsYW8WIT-235" vertex="1"><mxGeometry y="112" width="160" height="26" as="geometry"/></mxCell><mxCell id="21" value="+ getObjections()" style="text;strokeColor=none;fillColor=none;align=left;verticalAlign=top;spacingLeft=4;spacingRight=4;overflow=hidden;rotatable=0;points=[[0,0.5],[1,0.5]];portConstraint=eastwest;whiteSpace=wrap;html=1;" parent="eBTvOQhbbWVXLsYW8WIT-235" vertex="1"><mxGeometry y="138" width="160" height="26" as="geometry"/></mxCell><mxCell id="22" value="+ deleteObjection()" style="text;strokeColor=none;fillColor=none;align=left;verticalAlign=top;spacingLeft=4;spacingRight=4;overflow=hidden;rotatable=0;points=[[0,0.5],[1,0.5]];portConstraint=eastwest;whiteSpace=wrap;html=1;" parent="eBTvOQhbbWVXLsYW8WIT-235" vertex="1"><mxGeometry y="164" width="160" height="26" as="geometry"/></mxCell><mxCell id="eBTvOQhbbWVXLsYW8WIT-239" value="Storage" style="swimlane;fontStyle=1;align=center;verticalAlign=top;childLayout=stackLayout;horizontal=1;startSize=26;horizontalStack=0;resizeParent=1;resizeParentMax=0;resizeLast=0;collapsible=1;marginBottom=0;whiteSpace=wrap;html=1;" parent="WIyWlLk6GJQsqaUBKTNV-1" vertex="1"><mxGeometry x="-96" y="-90" width="160" height="164" as="geometry"><mxRectangle x="277" y="584" width="77" height="26" as="alternateBounds"/></mxGeometry></mxCell><mxCell id="eBTvOQhbbWVXLsYW8WIT-240" value="+ field: type" style="text;strokeColor=none;fillColor=none;align=left;verticalAlign=top;spacingLeft=4;spacingRight=4;overflow=hidden;rotatable=0;points=[[0,0.5],[1,0.5]];portConstraint=eastwest;whiteSpace=wrap;html=1;" parent="eBTvOQhbbWVXLsYW8WIT-239" vertex="1"><mxGeometry y="26" width="160" height="26" as="geometry"/></mxCell><mxCell id="eBTvOQhbbWVXLsYW8WIT-241" value="" style="line;strokeWidth=1;fillColor=none;align=left;verticalAlign=middle;spacingTop=-1;spacingLeft=3;spacingRight=3;rotatable=0;labelPosition=right;points=[];portConstraint=eastwest;strokeColor=inherit;" parent="eBTvOQhbbWVXLsYW8WIT-239" vertex="1"><mxGeometry y="52" width="160" height="8" as="geometry"/></mxCell><mxCell id="scS6lB70-Swo1higGm-x-23" value="&lt;div&gt;&lt;span style=&quot;background-color: initial;&quot;&gt;+ getStorage(): ArrayList&lt;/span&gt;&lt;br&gt;&lt;/div&gt;&lt;div&gt;&lt;span style=&quot;background-color: initial;&quot;&gt;&lt;br&gt;&lt;/span&gt;&lt;/div&gt;" style="text;strokeColor=none;fillColor=none;align=left;verticalAlign=top;spacingLeft=4;spacingRight=4;overflow=hidden;rotatable=0;points=[[0,0.5],[1,0.5]];portConstraint=eastwest;whiteSpace=wrap;html=1;" parent="eBTvOQhbbWVXLsYW8WIT-239" vertex="1"><mxGeometry y="60" width="160" height="26" as="geometry"/></mxCell><mxCell id="27" value="&lt;div&gt;+ getStorage2(): ArrayList&lt;/div&gt;&lt;div&gt;&lt;br&gt;&lt;/div&gt;" style="text;strokeColor=none;fillColor=none;align=left;verticalAlign=top;spacingLeft=4;spacingRight=4;overflow=hidden;rotatable=0;points=[[0,0.5],[1,0.5]];portConstraint=eastwest;whiteSpace=wrap;html=1;" vertex="1" parent="eBTvOQhbbWVXLsYW8WIT-239"><mxGeometry y="86" width="160" height="26" as="geometry"/></mxCell><mxCell id="28" value="&lt;div&gt;+ removeItem(Item): void&lt;/div&gt;&lt;div&gt;&lt;br&gt;&lt;/div&gt;" style="text;strokeColor=none;fillColor=none;align=left;verticalAlign=top;spacingLeft=4;spacingRight=4;overflow=hidden;rotatable=0;points=[[0,0.5],[1,0.5]];portConstraint=eastwest;whiteSpace=wrap;html=1;" vertex="1" parent="eBTvOQhbbWVXLsYW8WIT-239"><mxGeometry y="112" width="160" height="26" as="geometry"/></mxCell><mxCell id="29" value="+ getLowItems(): ArrayList" style="text;strokeColor=none;fillColor=none;align=left;verticalAlign=top;spacingLeft=4;spacingRight=4;overflow=hidden;rotatable=0;points=[[0,0.5],[1,0.5]];portConstraint=eastwest;whiteSpace=wrap;html=1;" vertex="1" parent="eBTvOQhbbWVXLsYW8WIT-239"><mxGeometry y="138" width="160" height="26" as="geometry"/></mxCell><mxCell id="eBTvOQhbbWVXLsYW8WIT-244" value="" style="endArrow=none;html=1;rounded=0;entryX=1;entryY=0.5;entryDx=0;entryDy=0;" parent="WIyWlLk6GJQsqaUBKTNV-1" source="eBTvOQhbbWVXLsYW8WIT-73" target="eBTvOQhbbWVXLsYW8WIT-235" edge="1"><mxGeometry relative="1" as="geometry"><mxPoint x="315" y="-288" as="sourcePoint"/><mxPoint x="263" y="-220" as="targetPoint"/></mxGeometry></mxCell><mxCell id="eBTvOQhbbWVXLsYW8WIT-245" value="1" style="resizable=0;html=1;whiteSpace=wrap;align=left;verticalAlign=bottom;" parent="eBTvOQhbbWVXLsYW8WIT-244" connectable="0" vertex="1"><mxGeometry x="-1" relative="1" as="geometry"><mxPoint x="-26" y="15" as="offset"/></mxGeometry></mxCell><mxCell id="eBTvOQhbbWVXLsYW8WIT-246" value="1" style="resizable=0;html=1;whiteSpace=wrap;align=right;verticalAlign=bottom;" parent="eBTvOQhbbWVXLsYW8WIT-244" connectable="0" vertex="1"><mxGeometry x="1" relative="1" as="geometry"><mxPoint x="16" y="5" as="offset"/></mxGeometry></mxCell><mxCell id="eBTvOQhbbWVXLsYW8WIT-247" value="" style="endArrow=none;html=1;rounded=0;entryX=1;entryY=0.5;entryDx=0;entryDy=0;exitX=0;exitY=0.75;exitDx=0;exitDy=0;" parent="WIyWlLk6GJQsqaUBKTNV-1" source="eBTvOQhbbWVXLsYW8WIT-73" target="eBTvOQhbbWVXLsYW8WIT-239" edge="1"><mxGeometry relative="1" as="geometry"><mxPoint x="386.5" y="-266.5" as="sourcePoint"/><mxPoint x="256.5" y="-221.5" as="targetPoint"/></mxGeometry></mxCell><mxCell id="eBTvOQhbbWVXLsYW8WIT-248" value="1" style="resizable=0;html=1;whiteSpace=wrap;align=left;verticalAlign=bottom;" parent="eBTvOQhbbWVXLsYW8WIT-247" connectable="0" vertex="1"><mxGeometry x="-1" relative="1" as="geometry"><mxPoint x="-16" y="24" as="offset"/></mxGeometry></mxCell><mxCell id="eBTvOQhbbWVXLsYW8WIT-249" value="1" style="resizable=0;html=1;whiteSpace=wrap;align=right;verticalAlign=bottom;" parent="eBTvOQhbbWVXLsYW8WIT-247" connectable="0" vertex="1"><mxGeometry x="1" relative="1" as="geometry"><mxPoint x="36" y="10" as="offset"/></mxGeometry></mxCell><mxCell id="eBTvOQhbbWVXLsYW8WIT-250" value="" style="endArrow=none;html=1;rounded=0;entryX=1;entryY=0;entryDx=0;entryDy=0;" parent="WIyWlLk6GJQsqaUBKTNV-1" source="eBTvOQhbbWVXLsYW8WIT-235" target="eBTvOQhbbWVXLsYW8WIT-79" edge="1"><mxGeometry relative="1" as="geometry"><mxPoint x="216" y="-292.5" as="sourcePoint"/><mxPoint x="86" y="-247.5" as="targetPoint"/></mxGeometry></mxCell><mxCell id="eBTvOQhbbWVXLsYW8WIT-251" value="1" style="resizable=0;html=1;whiteSpace=wrap;align=left;verticalAlign=bottom;" parent="eBTvOQhbbWVXLsYW8WIT-250" connectable="0" vertex="1"><mxGeometry x="-1" relative="1" as="geometry"><mxPoint x="-20" y="20" as="offset"/></mxGeometry></mxCell><mxCell id="eBTvOQhbbWVXLsYW8WIT-252" value="1" style="resizable=0;html=1;whiteSpace=wrap;align=right;verticalAlign=bottom;" parent="eBTvOQhbbWVXLsYW8WIT-250" connectable="0" vertex="1"><mxGeometry x="1" relative="1" as="geometry"><mxPoint x="7" as="offset"/></mxGeometry></mxCell><mxCell id="eBTvOQhbbWVXLsYW8WIT-253" value="" style="endArrow=none;html=1;rounded=0;exitX=0;exitY=0.5;exitDx=0;exitDy=0;" parent="WIyWlLk6GJQsqaUBKTNV-1" source="eBTvOQhbbWVXLsYW8WIT-239" target="eBTvOQhbbWVXLsYW8WIT-79" edge="1"><mxGeometry relative="1" as="geometry"><mxPoint x="153" y="-216" as="sourcePoint"/><mxPoint x="56" y="-286" as="targetPoint"/></mxGeometry></mxCell><mxCell id="eBTvOQhbbWVXLsYW8WIT-259" value="" style="endArrow=diamondThin;endFill=0;endSize=24;html=1;rounded=0;entryX=1;entryY=1;entryDx=0;entryDy=0;exitX=0;exitY=0;exitDx=0;exitDy=0;" parent="WIyWlLk6GJQsqaUBKTNV-1" source="eBTvOQhbbWVXLsYW8WIT-122" target="eBTvOQhbbWVXLsYW8WIT-239" edge="1"><mxGeometry width="160" relative="1" as="geometry"><mxPoint x="248.5" y="-134" as="sourcePoint"/><mxPoint x="248.5" y="-186" as="targetPoint"/><Array as="points"/></mxGeometry></mxCell><mxCell id="eBTvOQhbbWVXLsYW8WIT-260" value="" style="endArrow=none;html=1;rounded=0;entryX=0;entryY=1;entryDx=0;entryDy=0;exitX=1;exitY=0;exitDx=0;exitDy=0;" parent="WIyWlLk6GJQsqaUBKTNV-1" source="eBTvOQhbbWVXLsYW8WIT-239" target="eBTvOQhbbWVXLsYW8WIT-61" edge="1"><mxGeometry width="50" height="50" relative="1" as="geometry"><mxPoint x="336" y="-366" as="sourcePoint"/><mxPoint x="386" y="-416" as="targetPoint"/></mxGeometry></mxCell><mxCell id="wCl5vX7TFLa7LNLCwY4E-6" value="manage" style="edgeLabel;html=1;align=center;verticalAlign=middle;resizable=0;points=[];" parent="eBTvOQhbbWVXLsYW8WIT-260" vertex="1" connectable="0"><mxGeometry x="0.5489" relative="1" as="geometry"><mxPoint as="offset"/></mxGeometry></mxCell><mxCell id="eBTvOQhbbWVXLsYW8WIT-261" value="" style="endArrow=none;html=1;rounded=0;entryX=0;entryY=0;entryDx=0;entryDy=0;exitX=1;exitY=0;exitDx=0;exitDy=0;" parent="WIyWlLk6GJQsqaUBKTNV-1" source="eBTvOQhbbWVXLsYW8WIT-235" target="eBTvOQhbbWVXLsYW8WIT-61" edge="1"><mxGeometry width="50" height="50" relative="1" as="geometry"><mxPoint x="170.76999999999998" y="-356.87" as="sourcePoint"/><mxPoint x="307.77" y="-521.87" as="targetPoint"/></mxGeometry></mxCell><mxCell id="wCl5vX7TFLa7LNLCwY4E-5" value="manage" style="edgeLabel;html=1;align=center;verticalAlign=middle;resizable=0;points=[];" parent="eBTvOQhbbWVXLsYW8WIT-261" vertex="1" connectable="0"><mxGeometry x="0.0129" y="2" relative="1" as="geometry"><mxPoint as="offset"/></mxGeometry></mxCell><mxCell id="eBTvOQhbbWVXLsYW8WIT-262" value="" style="endArrow=none;html=1;rounded=0;exitX=1;exitY=1;exitDx=0;exitDy=0;" parent="WIyWlLk6GJQsqaUBKTNV-1" source="eBTvOQhbbWVXLsYW8WIT-61" target="eBTvOQhbbWVXLsYW8WIT-156" edge="1"><mxGeometry width="50" height="50" relative="1" as="geometry"><mxPoint x="416" y="-408" as="sourcePoint"/><mxPoint x="564" y="-540" as="targetPoint"/></mxGeometry></mxCell><mxCell id="eBTvOQhbbWVXLsYW8WIT-263" value="manage" style="edgeLabel;html=1;align=center;verticalAlign=middle;resizable=0;points=[];" parent="eBTvOQhbbWVXLsYW8WIT-262" vertex="1" connectable="0"><mxGeometry x="0.042" y="-2" relative="1" as="geometry"><mxPoint as="offset"/></mxGeometry></mxCell><mxCell id="eBTvOQhbbWVXLsYW8WIT-264" value="" style="endArrow=none;html=1;rounded=0;entryX=1;entryY=0.5;entryDx=0;entryDy=0;" parent="WIyWlLk6GJQsqaUBKTNV-1" source="eBTvOQhbbWVXLsYW8WIT-57" target="7CPi1hFvJVEqu4h6u_QQ-8" edge="1"><mxGeometry relative="1" as="geometry"><mxPoint x="727" y="-498" as="sourcePoint"/><mxPoint x="716" y="-76" as="targetPoint"/><Array as="points"><mxPoint x="1464" y="-500"/><mxPoint x="1464" y="355"/></Array></mxGeometry></mxCell><mxCell id="eBTvOQhbbWVXLsYW8WIT-265" value="1" style="resizable=0;html=1;whiteSpace=wrap;align=left;verticalAlign=bottom;" parent="eBTvOQhbbWVXLsYW8WIT-264" connectable="0" vertex="1"><mxGeometry x="-1" relative="1" as="geometry"><mxPoint x="3" y="24" as="offset"/></mxGeometry></mxCell><mxCell id="eBTvOQhbbWVXLsYW8WIT-266" value="*" style="resizable=0;html=1;whiteSpace=wrap;align=right;verticalAlign=bottom;" parent="eBTvOQhbbWVXLsYW8WIT-264" connectable="0" vertex="1"><mxGeometry x="1" relative="1" as="geometry"><mxPoint x="14" as="offset"/></mxGeometry></mxCell><mxCell id="wCl5vX7TFLa7LNLCwY4E-0" value="" style="endArrow=diamondThin;endFill=0;endSize=24;html=1;rounded=0;exitX=0.5;exitY=0;exitDx=0;exitDy=0;" parent="WIyWlLk6GJQsqaUBKTNV-1" source="wCl5vX7TFLa7LNLCwY4E-1" target="eBTvOQhbbWVXLsYW8WIT-235" edge="1"><mxGeometry width="160" relative="1" as="geometry"><mxPoint x="210" y="-346" as="sourcePoint"/><mxPoint x="201" y="-386" as="targetPoint"/></mxGeometry></mxCell><mxCell id="wCl5vX7TFLa7LNLCwY4E-1" value="Event" style="swimlane;fontStyle=1;align=center;verticalAlign=top;childLayout=stackLayout;horizontal=1;startSize=26;horizontalStack=0;resizeParent=1;resizeParentMax=0;resizeLast=0;collapsible=1;marginBottom=0;whiteSpace=wrap;html=1;" parent="WIyWlLk6GJQsqaUBKTNV-1" vertex="1"><mxGeometry x="-556" y="-600" width="160" height="86" as="geometry"><mxRectangle x="310" y="494" width="87" height="26" as="alternateBounds"/></mxGeometry></mxCell><mxCell id="wCl5vX7TFLa7LNLCwY4E-2" value="+ field: type" style="text;strokeColor=none;fillColor=none;align=left;verticalAlign=top;spacingLeft=4;spacingRight=4;overflow=hidden;rotatable=0;points=[[0,0.5],[1,0.5]];portConstraint=eastwest;whiteSpace=wrap;html=1;" parent="wCl5vX7TFLa7LNLCwY4E-1" vertex="1"><mxGeometry y="26" width="160" height="26" as="geometry"/></mxCell><mxCell id="wCl5vX7TFLa7LNLCwY4E-3" value="" style="line;strokeWidth=1;fillColor=none;align=left;verticalAlign=middle;spacingTop=-1;spacingLeft=3;spacingRight=3;rotatable=0;labelPosition=right;points=[];portConstraint=eastwest;strokeColor=inherit;" parent="wCl5vX7TFLa7LNLCwY4E-1" vertex="1"><mxGeometry y="52" width="160" height="8" as="geometry"/></mxCell><mxCell id="wCl5vX7TFLa7LNLCwY4E-4" value="+ method(type): type" style="text;strokeColor=none;fillColor=none;align=left;verticalAlign=top;spacingLeft=4;spacingRight=4;overflow=hidden;rotatable=0;points=[[0,0.5],[1,0.5]];portConstraint=eastwest;whiteSpace=wrap;html=1;" parent="wCl5vX7TFLa7LNLCwY4E-1" vertex="1"><mxGeometry y="60" width="160" height="26" as="geometry"/></mxCell><mxCell id="scS6lB70-Swo1higGm-x-2" style="edgeStyle=orthogonalEdgeStyle;rounded=0;orthogonalLoop=1;jettySize=auto;html=1;exitX=0.5;exitY=0;exitDx=0;exitDy=0;" parent="WIyWlLk6GJQsqaUBKTNV-1" source="wCl5vX7TFLa7LNLCwY4E-8" target="eBTvOQhbbWVXLsYW8WIT-79" edge="1"><mxGeometry relative="1" as="geometry"/></mxCell><mxCell id="wCl5vX7TFLa7LNLCwY4E-8" value="Cashier" style="swimlane;fontStyle=1;align=center;verticalAlign=top;childLayout=stackLayout;horizontal=1;startSize=26;horizontalStack=0;resizeParent=1;resizeParentMax=0;resizeLast=0;collapsible=1;marginBottom=0;whiteSpace=wrap;html=1;" parent="WIyWlLk6GJQsqaUBKTNV-1" vertex="1"><mxGeometry x="-256" y="470" width="160" height="86" as="geometry"><mxRectangle x="180" y="878" width="80" height="26" as="alternateBounds"/></mxGeometry></mxCell><mxCell id="wCl5vX7TFLa7LNLCwY4E-9" value="+ field: type" style="text;strokeColor=none;fillColor=none;align=left;verticalAlign=top;spacingLeft=4;spacingRight=4;overflow=hidden;rotatable=0;points=[[0,0.5],[1,0.5]];portConstraint=eastwest;whiteSpace=wrap;html=1;" parent="wCl5vX7TFLa7LNLCwY4E-8" vertex="1"><mxGeometry y="26" width="160" height="26" as="geometry"/></mxCell><mxCell id="wCl5vX7TFLa7LNLCwY4E-10" value="" style="line;strokeWidth=1;fillColor=none;align=left;verticalAlign=middle;spacingTop=-1;spacingLeft=3;spacingRight=3;rotatable=0;labelPosition=right;points=[];portConstraint=eastwest;strokeColor=inherit;" parent="wCl5vX7TFLa7LNLCwY4E-8" vertex="1"><mxGeometry y="52" width="160" height="8" as="geometry"/></mxCell><mxCell id="wCl5vX7TFLa7LNLCwY4E-11" value="+ method(type): type" style="text;strokeColor=none;fillColor=none;align=left;verticalAlign=top;spacingLeft=4;spacingRight=4;overflow=hidden;rotatable=0;points=[[0,0.5],[1,0.5]];portConstraint=eastwest;whiteSpace=wrap;html=1;" parent="wCl5vX7TFLa7LNLCwY4E-8" vertex="1"><mxGeometry y="60" width="160" height="26" as="geometry"/></mxCell><mxCell id="scS6lB70-Swo1higGm-x-3" style="edgeStyle=orthogonalEdgeStyle;rounded=0;orthogonalLoop=1;jettySize=auto;html=1;exitX=0.5;exitY=0;exitDx=0;exitDy=0;" parent="WIyWlLk6GJQsqaUBKTNV-1" source="wCl5vX7TFLa7LNLCwY4E-12" target="eBTvOQhbbWVXLsYW8WIT-79" edge="1"><mxGeometry relative="1" as="geometry"><Array as="points"><mxPoint x="-276" y="252"/></Array></mxGeometry></mxCell><mxCell id="wCl5vX7TFLa7LNLCwY4E-12" value="Waiter" style="swimlane;fontStyle=1;align=center;verticalAlign=top;childLayout=stackLayout;horizontal=1;startSize=26;horizontalStack=0;resizeParent=1;resizeParentMax=0;resizeLast=0;collapsible=1;marginBottom=0;whiteSpace=wrap;html=1;" parent="WIyWlLk6GJQsqaUBKTNV-1" vertex="1"><mxGeometry x="-364" y="252" width="160" height="86" as="geometry"><mxRectangle x="71" y="865" width="70" height="26" as="alternateBounds"/></mxGeometry></mxCell><mxCell id="wCl5vX7TFLa7LNLCwY4E-13" value="+ field: type" style="text;strokeColor=none;fillColor=none;align=left;verticalAlign=top;spacingLeft=4;spacingRight=4;overflow=hidden;rotatable=0;points=[[0,0.5],[1,0.5]];portConstraint=eastwest;whiteSpace=wrap;html=1;" parent="wCl5vX7TFLa7LNLCwY4E-12" vertex="1"><mxGeometry y="26" width="160" height="26" as="geometry"/></mxCell><mxCell id="wCl5vX7TFLa7LNLCwY4E-14" value="" style="line;strokeWidth=1;fillColor=none;align=left;verticalAlign=middle;spacingTop=-1;spacingLeft=3;spacingRight=3;rotatable=0;labelPosition=right;points=[];portConstraint=eastwest;strokeColor=inherit;" parent="wCl5vX7TFLa7LNLCwY4E-12" vertex="1"><mxGeometry y="52" width="160" height="8" as="geometry"/></mxCell><mxCell id="wCl5vX7TFLa7LNLCwY4E-15" value="+ callWaiter(): void" style="text;strokeColor=none;fillColor=none;align=left;verticalAlign=top;spacingLeft=4;spacingRight=4;overflow=hidden;rotatable=0;points=[[0,0.5],[1,0.5]];portConstraint=eastwest;whiteSpace=wrap;html=1;" parent="wCl5vX7TFLa7LNLCwY4E-12" vertex="1"><mxGeometry y="60" width="160" height="26" as="geometry"/></mxCell><mxCell id="wCl5vX7TFLa7LNLCwY4E-16" value="" style="endArrow=none;html=1;rounded=0;entryX=1;entryY=0.5;entryDx=0;entryDy=0;exitX=0;exitY=0.5;exitDx=0;exitDy=0;" parent="WIyWlLk6GJQsqaUBKTNV-1" source="eBTvOQhbbWVXLsYW8WIT-141" target="wCl5vX7TFLa7LNLCwY4E-8" edge="1"><mxGeometry relative="1" as="geometry"><mxPoint x="373" y="150" as="sourcePoint"/><mxPoint x="172" y="54" as="targetPoint"/><Array as="points"><mxPoint x="154" y="860"/></Array></mxGeometry></mxCell><mxCell id="wCl5vX7TFLa7LNLCwY4E-17" value="" style="endArrow=diamondThin;endFill=0;endSize=24;html=1;rounded=0;entryX=0.5;entryY=0;entryDx=0;entryDy=0;movable=1;resizable=1;rotatable=1;deletable=1;editable=1;locked=0;connectable=1;exitX=0.5;exitY=1;exitDx=0;exitDy=0;" parent="WIyWlLk6GJQsqaUBKTNV-1" source="eBTvOQhbbWVXLsYW8WIT-122" target="eBTvOQhbbWVXLsYW8WIT-130" edge="1"><mxGeometry width="160" relative="1" as="geometry"><mxPoint x="739.4300000000001" y="639.9999999999998" as="sourcePoint"/><mxPoint x="862.9300000000001" y="629.9999999999998" as="targetPoint"/></mxGeometry></mxCell><mxCell id="wCl5vX7TFLa7LNLCwY4E-18" value="" style="endArrow=diamondThin;endFill=0;endSize=24;html=1;rounded=0;entryX=1;entryY=0.5;entryDx=0;entryDy=0;exitX=0;exitY=0.5;exitDx=0;exitDy=0;movable=1;resizable=1;rotatable=1;deletable=1;editable=1;locked=0;connectable=1;" parent="WIyWlLk6GJQsqaUBKTNV-1" source="eBTvOQhbbWVXLsYW8WIT-130" target="eBTvOQhbbWVXLsYW8WIT-176" edge="1"><mxGeometry width="160" relative="1" as="geometry"><mxPoint x="315" y="-118" as="sourcePoint"/><mxPoint x="316" y="-96" as="targetPoint"/><Array as="points"/></mxGeometry></mxCell><mxCell id="wCl5vX7TFLa7LNLCwY4E-25" value="" style="endArrow=diamondThin;endFill=0;endSize=24;html=1;rounded=0;" parent="WIyWlLk6GJQsqaUBKTNV-1" source="wCl5vX7TFLa7LNLCwY4E-21" edge="1"><mxGeometry width="160" relative="1" as="geometry"><mxPoint x="711.5" y="313.89999999999986" as="sourcePoint"/><mxPoint x="784" y="366" as="targetPoint"/></mxGeometry></mxCell><mxCell id="Qq1OwkYHJl0CPa1Xtjsu-0" value="Transaction" style="swimlane;fontStyle=1;align=center;verticalAlign=top;childLayout=stackLayout;horizontal=1;startSize=26;horizontalStack=0;resizeParent=1;resizeParentMax=0;resizeLast=0;collapsible=1;marginBottom=0;whiteSpace=wrap;html=1;" parent="WIyWlLk6GJQsqaUBKTNV-1" vertex="1"><mxGeometry x="944" y="186" width="160" height="86" as="geometry"><mxRectangle x="777.5" y="740" width="100" height="26" as="alternateBounds"/></mxGeometry></mxCell><mxCell id="Qq1OwkYHJl0CPa1Xtjsu-1" value="+ field: type" style="text;strokeColor=none;fillColor=none;align=left;verticalAlign=top;spacingLeft=4;spacingRight=4;overflow=hidden;rotatable=0;points=[[0,0.5],[1,0.5]];portConstraint=eastwest;whiteSpace=wrap;html=1;" parent="Qq1OwkYHJl0CPa1Xtjsu-0" vertex="1"><mxGeometry y="26" width="160" height="26" as="geometry"/></mxCell><mxCell id="Qq1OwkYHJl0CPa1Xtjsu-2" value="" style="line;strokeWidth=1;fillColor=none;align=left;verticalAlign=middle;spacingTop=-1;spacingLeft=3;spacingRight=3;rotatable=0;labelPosition=right;points=[];portConstraint=eastwest;strokeColor=inherit;" parent="Qq1OwkYHJl0CPa1Xtjsu-0" vertex="1"><mxGeometry y="52" width="160" height="8" as="geometry"/></mxCell><mxCell id="Qq1OwkYHJl0CPa1Xtjsu-3" value="+ method(type): type" style="text;strokeColor=none;fillColor=none;align=left;verticalAlign=top;spacingLeft=4;spacingRight=4;overflow=hidden;rotatable=0;points=[[0,0.5],[1,0.5]];portConstraint=eastwest;whiteSpace=wrap;html=1;" parent="Qq1OwkYHJl0CPa1Xtjsu-0" vertex="1"><mxGeometry y="60" width="160" height="26" as="geometry"/></mxCell><mxCell id="Qq1OwkYHJl0CPa1Xtjsu-4" value="Logistics" style="swimlane;fontStyle=1;align=center;verticalAlign=top;childLayout=stackLayout;horizontal=1;startSize=26;horizontalStack=0;resizeParent=1;resizeParentMax=0;resizeLast=0;collapsible=1;marginBottom=0;whiteSpace=wrap;html=1;" parent="WIyWlLk6GJQsqaUBKTNV-1" vertex="1"><mxGeometry x="944" y="50" width="160" height="86" as="geometry"><mxRectangle x="770" y="654" width="100" height="26" as="alternateBounds"/></mxGeometry></mxCell><mxCell id="Qq1OwkYHJl0CPa1Xtjsu-5" value="+ field: type" style="text;strokeColor=none;fillColor=none;align=left;verticalAlign=top;spacingLeft=4;spacingRight=4;overflow=hidden;rotatable=0;points=[[0,0.5],[1,0.5]];portConstraint=eastwest;whiteSpace=wrap;html=1;" parent="Qq1OwkYHJl0CPa1Xtjsu-4" vertex="1"><mxGeometry y="26" width="160" height="26" as="geometry"/></mxCell><mxCell id="Qq1OwkYHJl0CPa1Xtjsu-6" value="" style="line;strokeWidth=1;fillColor=none;align=left;verticalAlign=middle;spacingTop=-1;spacingLeft=3;spacingRight=3;rotatable=0;labelPosition=right;points=[];portConstraint=eastwest;strokeColor=inherit;" parent="Qq1OwkYHJl0CPa1Xtjsu-4" vertex="1"><mxGeometry y="52" width="160" height="8" as="geometry"/></mxCell><mxCell id="Qq1OwkYHJl0CPa1Xtjsu-7" value="+ fetchTransactions()" style="text;strokeColor=none;fillColor=none;align=left;verticalAlign=top;spacingLeft=4;spacingRight=4;overflow=hidden;rotatable=0;points=[[0,0.5],[1,0.5]];portConstraint=eastwest;whiteSpace=wrap;html=1;" parent="Qq1OwkYHJl0CPa1Xtjsu-4" vertex="1"><mxGeometry y="60" width="160" height="26" as="geometry"/></mxCell><mxCell id="Qq1OwkYHJl0CPa1Xtjsu-8" value="Statistics" style="swimlane;fontStyle=1;align=center;verticalAlign=top;childLayout=stackLayout;horizontal=1;startSize=26;horizontalStack=0;resizeParent=1;resizeParentMax=0;resizeLast=0;collapsible=1;marginBottom=0;whiteSpace=wrap;html=1;" parent="WIyWlLk6GJQsqaUBKTNV-1" vertex="1"><mxGeometry x="-166" y="-1010" width="160" height="86" as="geometry"><mxRectangle x="-174" y="320" width="100" height="26" as="alternateBounds"/></mxGeometry></mxCell><mxCell id="Qq1OwkYHJl0CPa1Xtjsu-9" value="+ field: type" style="text;strokeColor=none;fillColor=none;align=left;verticalAlign=top;spacingLeft=4;spacingRight=4;overflow=hidden;rotatable=0;points=[[0,0.5],[1,0.5]];portConstraint=eastwest;whiteSpace=wrap;html=1;" parent="Qq1OwkYHJl0CPa1Xtjsu-8" vertex="1"><mxGeometry y="26" width="160" height="26" as="geometry"/></mxCell><mxCell id="Qq1OwkYHJl0CPa1Xtjsu-10" value="" style="line;strokeWidth=1;fillColor=none;align=left;verticalAlign=middle;spacingTop=-1;spacingLeft=3;spacingRight=3;rotatable=0;labelPosition=right;points=[];portConstraint=eastwest;strokeColor=inherit;" parent="Qq1OwkYHJl0CPa1Xtjsu-8" vertex="1"><mxGeometry y="52" width="160" height="8" as="geometry"/></mxCell><mxCell id="Qq1OwkYHJl0CPa1Xtjsu-11" value="+ method(type): type" style="text;strokeColor=none;fillColor=none;align=left;verticalAlign=top;spacingLeft=4;spacingRight=4;overflow=hidden;rotatable=0;points=[[0,0.5],[1,0.5]];portConstraint=eastwest;whiteSpace=wrap;html=1;" parent="Qq1OwkYHJl0CPa1Xtjsu-8" vertex="1"><mxGeometry y="60" width="160" height="26" as="geometry"/></mxCell><mxCell id="7CPi1hFvJVEqu4h6u_QQ-23" style="edgeStyle=orthogonalEdgeStyle;rounded=0;orthogonalLoop=1;jettySize=auto;html=1;exitX=0.5;exitY=0;exitDx=0;exitDy=0;entryX=0.5;entryY=1;entryDx=0;entryDy=0;" parent="WIyWlLk6GJQsqaUBKTNV-1" source="Qq1OwkYHJl0CPa1Xtjsu-12" target="Qq1OwkYHJl0CPa1Xtjsu-8" edge="1"><mxGeometry relative="1" as="geometry"/></mxCell><mxCell id="Qq1OwkYHJl0CPa1Xtjsu-12" value="orderStatistics" style="swimlane;fontStyle=1;align=center;verticalAlign=top;childLayout=stackLayout;horizontal=1;startSize=26;horizontalStack=0;resizeParent=1;resizeParentMax=0;resizeLast=0;collapsible=1;marginBottom=0;whiteSpace=wrap;html=1;" parent="WIyWlLk6GJQsqaUBKTNV-1" vertex="1"><mxGeometry x="-296" y="-806" width="160" height="86" as="geometry"><mxRectangle x="-179" y="490" width="110" height="26" as="alternateBounds"/></mxGeometry></mxCell><mxCell id="Qq1OwkYHJl0CPa1Xtjsu-13" value="+ field: type" style="text;strokeColor=none;fillColor=none;align=left;verticalAlign=top;spacingLeft=4;spacingRight=4;overflow=hidden;rotatable=0;points=[[0,0.5],[1,0.5]];portConstraint=eastwest;whiteSpace=wrap;html=1;" parent="Qq1OwkYHJl0CPa1Xtjsu-12" vertex="1"><mxGeometry y="26" width="160" height="26" as="geometry"/></mxCell><mxCell id="Qq1OwkYHJl0CPa1Xtjsu-14" value="" style="line;strokeWidth=1;fillColor=none;align=left;verticalAlign=middle;spacingTop=-1;spacingLeft=3;spacingRight=3;rotatable=0;labelPosition=right;points=[];portConstraint=eastwest;strokeColor=inherit;" parent="Qq1OwkYHJl0CPa1Xtjsu-12" vertex="1"><mxGeometry y="52" width="160" height="8" as="geometry"/></mxCell><mxCell id="Qq1OwkYHJl0CPa1Xtjsu-15" value="+ method(type): type" style="text;strokeColor=none;fillColor=none;align=left;verticalAlign=top;spacingLeft=4;spacingRight=4;overflow=hidden;rotatable=0;points=[[0,0.5],[1,0.5]];portConstraint=eastwest;whiteSpace=wrap;html=1;" parent="Qq1OwkYHJl0CPa1Xtjsu-12" vertex="1"><mxGeometry y="60" width="160" height="26" as="geometry"/></mxCell><mxCell id="7CPi1hFvJVEqu4h6u_QQ-24" style="edgeStyle=orthogonalEdgeStyle;rounded=0;orthogonalLoop=1;jettySize=auto;html=1;exitX=0.5;exitY=0;exitDx=0;exitDy=0;entryX=0.5;entryY=1;entryDx=0;entryDy=0;" parent="WIyWlLk6GJQsqaUBKTNV-1" source="Qq1OwkYHJl0CPa1Xtjsu-16" target="Qq1OwkYHJl0CPa1Xtjsu-8" edge="1"><mxGeometry relative="1" as="geometry"/></mxCell><mxCell id="Qq1OwkYHJl0CPa1Xtjsu-16" value="workerStatistics" style="swimlane;fontStyle=1;align=center;verticalAlign=top;childLayout=stackLayout;horizontal=1;startSize=26;horizontalStack=0;resizeParent=1;resizeParentMax=0;resizeLast=0;collapsible=1;marginBottom=0;whiteSpace=wrap;html=1;" parent="WIyWlLk6GJQsqaUBKTNV-1" vertex="1"><mxGeometry x="-106" y="-809" width="160" height="86" as="geometry"><mxRectangle x="-48" y="482" width="130" height="26" as="alternateBounds"/></mxGeometry></mxCell><mxCell id="Qq1OwkYHJl0CPa1Xtjsu-17" value="+ field: type" style="text;strokeColor=none;fillColor=none;align=left;verticalAlign=top;spacingLeft=4;spacingRight=4;overflow=hidden;rotatable=0;points=[[0,0.5],[1,0.5]];portConstraint=eastwest;whiteSpace=wrap;html=1;" parent="Qq1OwkYHJl0CPa1Xtjsu-16" vertex="1"><mxGeometry y="26" width="160" height="26" as="geometry"/></mxCell><mxCell id="Qq1OwkYHJl0CPa1Xtjsu-18" value="" style="line;strokeWidth=1;fillColor=none;align=left;verticalAlign=middle;spacingTop=-1;spacingLeft=3;spacingRight=3;rotatable=0;labelPosition=right;points=[];portConstraint=eastwest;strokeColor=inherit;" parent="Qq1OwkYHJl0CPa1Xtjsu-16" vertex="1"><mxGeometry y="52" width="160" height="8" as="geometry"/></mxCell><mxCell id="Qq1OwkYHJl0CPa1Xtjsu-19" value="+ method(type): type" style="text;strokeColor=none;fillColor=none;align=left;verticalAlign=top;spacingLeft=4;spacingRight=4;overflow=hidden;rotatable=0;points=[[0,0.5],[1,0.5]];portConstraint=eastwest;whiteSpace=wrap;html=1;" parent="Qq1OwkYHJl0CPa1Xtjsu-16" vertex="1"><mxGeometry y="60" width="160" height="26" as="geometry"/></mxCell><mxCell id="7CPi1hFvJVEqu4h6u_QQ-22" style="edgeStyle=orthogonalEdgeStyle;rounded=0;orthogonalLoop=1;jettySize=auto;html=1;exitX=0.5;exitY=0;exitDx=0;exitDy=0;entryX=0.5;entryY=1;entryDx=0;entryDy=0;" parent="WIyWlLk6GJQsqaUBKTNV-1" source="Qq1OwkYHJl0CPa1Xtjsu-20" target="Qq1OwkYHJl0CPa1Xtjsu-8" edge="1"><mxGeometry relative="1" as="geometry"/></mxCell><mxCell id="Qq1OwkYHJl0CPa1Xtjsu-20" value="clientStatistics" style="swimlane;fontStyle=1;align=center;verticalAlign=top;childLayout=stackLayout;horizontal=1;startSize=26;horizontalStack=0;resizeParent=1;resizeParentMax=0;resizeLast=0;collapsible=1;marginBottom=0;whiteSpace=wrap;html=1;" parent="WIyWlLk6GJQsqaUBKTNV-1" vertex="1"><mxGeometry x="-486" y="-809" width="160" height="92" as="geometry"><mxRectangle x="-320" y="468" width="110" height="26" as="alternateBounds"/></mxGeometry></mxCell><mxCell id="Qq1OwkYHJl0CPa1Xtjsu-21" value="+ field: type" style="text;strokeColor=none;fillColor=none;align=left;verticalAlign=top;spacingLeft=4;spacingRight=4;overflow=hidden;rotatable=0;points=[[0,0.5],[1,0.5]];portConstraint=eastwest;whiteSpace=wrap;html=1;" parent="Qq1OwkYHJl0CPa1Xtjsu-20" vertex="1"><mxGeometry y="26" width="160" height="32" as="geometry"/></mxCell><mxCell id="Qq1OwkYHJl0CPa1Xtjsu-22" value="" style="line;strokeWidth=1;fillColor=none;align=left;verticalAlign=middle;spacingTop=-1;spacingLeft=3;spacingRight=3;rotatable=0;labelPosition=right;points=[];portConstraint=eastwest;strokeColor=inherit;" parent="Qq1OwkYHJl0CPa1Xtjsu-20" vertex="1"><mxGeometry y="58" width="160" height="8" as="geometry"/></mxCell><mxCell id="Qq1OwkYHJl0CPa1Xtjsu-23" value="+ method(type): type" style="text;strokeColor=none;fillColor=none;align=left;verticalAlign=top;spacingLeft=4;spacingRight=4;overflow=hidden;rotatable=0;points=[[0,0.5],[1,0.5]];portConstraint=eastwest;whiteSpace=wrap;html=1;" parent="Qq1OwkYHJl0CPa1Xtjsu-20" vertex="1"><mxGeometry y="66" width="160" height="26" as="geometry"/></mxCell><mxCell id="OFhcxBTgbAT6_pQEicne-0" value="Objection" style="swimlane;fontStyle=1;align=center;verticalAlign=top;childLayout=stackLayout;horizontal=1;startSize=26;horizontalStack=0;resizeParent=1;resizeParentMax=0;resizeLast=0;collapsible=1;marginBottom=0;whiteSpace=wrap;html=1;" parent="WIyWlLk6GJQsqaUBKTNV-1" vertex="1"><mxGeometry x="-556" y="-440" width="160" height="86" as="geometry"><mxRectangle x="160" y="494" width="100" height="26" as="alternateBounds"/></mxGeometry></mxCell><mxCell id="OFhcxBTgbAT6_pQEicne-1" value="+ field: type" style="text;strokeColor=none;fillColor=none;align=left;verticalAlign=top;spacingLeft=4;spacingRight=4;overflow=hidden;rotatable=0;points=[[0,0.5],[1,0.5]];portConstraint=eastwest;whiteSpace=wrap;html=1;" parent="OFhcxBTgbAT6_pQEicne-0" vertex="1"><mxGeometry y="26" width="160" height="26" as="geometry"/></mxCell><mxCell id="OFhcxBTgbAT6_pQEicne-2" value="" style="line;strokeWidth=1;fillColor=none;align=left;verticalAlign=middle;spacingTop=-1;spacingLeft=3;spacingRight=3;rotatable=0;labelPosition=right;points=[];portConstraint=eastwest;strokeColor=inherit;" parent="OFhcxBTgbAT6_pQEicne-0" vertex="1"><mxGeometry y="52" width="160" height="8" as="geometry"/></mxCell><mxCell id="OFhcxBTgbAT6_pQEicne-3" value="+ method(type): type" style="text;strokeColor=none;fillColor=none;align=left;verticalAlign=top;spacingLeft=4;spacingRight=4;overflow=hidden;rotatable=0;points=[[0,0.5],[1,0.5]];portConstraint=eastwest;whiteSpace=wrap;html=1;" parent="OFhcxBTgbAT6_pQEicne-0" vertex="1"><mxGeometry y="60" width="160" height="26" as="geometry"/></mxCell><mxCell id="NRqoyUgFvy12pmHnRJRa-0" value="Order&lt;span style=&quot;background-color: initial;&quot;&gt;History&lt;/span&gt;" style="swimlane;fontStyle=1;align=center;verticalAlign=top;childLayout=stackLayout;horizontal=1;startSize=30;horizontalStack=0;resizeParent=1;resizeParentMax=0;resizeLast=0;collapsible=1;marginBottom=0;whiteSpace=wrap;html=1;" parent="WIyWlLk6GJQsqaUBKTNV-1" vertex="1"><mxGeometry x="1024" y="-130" width="160" height="142" as="geometry"><mxRectangle x="980" y="560" width="110" height="30" as="alternateBounds"/></mxGeometry></mxCell><mxCell id="NRqoyUgFvy12pmHnRJRa-1" value="+ field: type" style="text;strokeColor=none;fillColor=none;align=left;verticalAlign=top;spacingLeft=4;spacingRight=4;overflow=hidden;rotatable=0;points=[[0,0.5],[1,0.5]];portConstraint=eastwest;whiteSpace=wrap;html=1;" parent="NRqoyUgFvy12pmHnRJRa-0" vertex="1"><mxGeometry y="30" width="160" height="26" as="geometry"/></mxCell><mxCell id="NRqoyUgFvy12pmHnRJRa-2" value="" style="line;strokeWidth=1;fillColor=none;align=left;verticalAlign=middle;spacingTop=-1;spacingLeft=3;spacingRight=3;rotatable=0;labelPosition=right;points=[];portConstraint=eastwest;strokeColor=inherit;" parent="NRqoyUgFvy12pmHnRJRa-0" vertex="1"><mxGeometry y="56" width="160" height="8" as="geometry"/></mxCell><mxCell id="NRqoyUgFvy12pmHnRJRa-3" value="+ calculateOrderStatistics()" style="text;strokeColor=none;fillColor=none;align=left;verticalAlign=top;spacingLeft=4;spacingRight=4;overflow=hidden;rotatable=0;points=[[0,0.5],[1,0.5]];portConstraint=eastwest;whiteSpace=wrap;html=1;" parent="NRqoyUgFvy12pmHnRJRa-0" vertex="1"><mxGeometry y="64" width="160" height="26" as="geometry"/></mxCell><mxCell id="14" value="+ method(type): type" style="text;strokeColor=none;fillColor=none;align=left;verticalAlign=top;spacingLeft=4;spacingRight=4;overflow=hidden;rotatable=0;points=[[0,0.5],[1,0.5]];portConstraint=eastwest;whiteSpace=wrap;html=1;" parent="NRqoyUgFvy12pmHnRJRa-0" vertex="1"><mxGeometry y="90" width="160" height="26" as="geometry"/></mxCell><mxCell id="15" value="+ method(type): type" style="text;strokeColor=none;fillColor=none;align=left;verticalAlign=top;spacingLeft=4;spacingRight=4;overflow=hidden;rotatable=0;points=[[0,0.5],[1,0.5]];portConstraint=eastwest;whiteSpace=wrap;html=1;" parent="NRqoyUgFvy12pmHnRJRa-0" vertex="1"><mxGeometry y="116" width="160" height="26" as="geometry"/></mxCell><mxCell id="NRqoyUgFvy12pmHnRJRa-208" value="core.business.DineEase" style="swimlane;fontStyle=1;align=center;verticalAlign=top;childLayout=stackLayout;horizontal=1;startSize=26;horizontalStack=0;resizeParent=1;resizeParentMax=0;resizeLast=0;collapsible=1;marginBottom=0;whiteSpace=wrap;html=1;" parent="WIyWlLk6GJQsqaUBKTNV-1" vertex="1"><mxGeometry x="74" y="-1020" width="160" height="138" as="geometry"><mxRectangle x="356.5" y="-60" width="94" height="26" as="alternateBounds"/></mxGeometry></mxCell><mxCell id="scS6lB70-Swo1higGm-x-49" value="+ field: type" style="text;strokeColor=none;fillColor=none;align=left;verticalAlign=top;spacingLeft=4;spacingRight=4;overflow=hidden;rotatable=0;points=[[0,0.5],[1,0.5]];portConstraint=eastwest;whiteSpace=wrap;html=1;" parent="NRqoyUgFvy12pmHnRJRa-208" vertex="1"><mxGeometry y="26" width="160" height="26" as="geometry"/></mxCell><mxCell id="scS6lB70-Swo1higGm-x-51" value="+ field: type" style="text;strokeColor=none;fillColor=none;align=left;verticalAlign=top;spacingLeft=4;spacingRight=4;overflow=hidden;rotatable=0;points=[[0,0.5],[1,0.5]];portConstraint=eastwest;whiteSpace=wrap;html=1;" parent="NRqoyUgFvy12pmHnRJRa-208" vertex="1"><mxGeometry y="52" width="160" height="26" as="geometry"/></mxCell><mxCell id="scS6lB70-Swo1higGm-x-54" value="" style="line;strokeWidth=1;fillColor=none;align=left;verticalAlign=middle;spacingTop=-1;spacingLeft=3;spacingRight=3;rotatable=0;labelPosition=right;points=[];portConstraint=eastwest;strokeColor=inherit;" parent="NRqoyUgFvy12pmHnRJRa-208" vertex="1"><mxGeometry y="78" width="160" height="8" as="geometry"/></mxCell><mxCell id="scS6lB70-Swo1higGm-x-52" value="+ method(type): type" style="text;strokeColor=none;fillColor=none;align=left;verticalAlign=top;spacingLeft=4;spacingRight=4;overflow=hidden;rotatable=0;points=[[0,0.5],[1,0.5]];portConstraint=eastwest;whiteSpace=wrap;html=1;" parent="NRqoyUgFvy12pmHnRJRa-208" vertex="1"><mxGeometry y="86" width="160" height="26" as="geometry"/></mxCell><mxCell id="scS6lB70-Swo1higGm-x-50" value="+ method(type): type" style="text;strokeColor=none;fillColor=none;align=left;verticalAlign=top;spacingLeft=4;spacingRight=4;overflow=hidden;rotatable=0;points=[[0,0.5],[1,0.5]];portConstraint=eastwest;whiteSpace=wrap;html=1;" parent="NRqoyUgFvy12pmHnRJRa-208" vertex="1"><mxGeometry y="112" width="160" height="26" as="geometry"/></mxCell><mxCell id="NRqoyUgFvy12pmHnRJRa-211" value="Basket" style="swimlane;fontStyle=1;align=center;verticalAlign=top;childLayout=stackLayout;horizontal=1;startSize=26;horizontalStack=0;resizeParent=1;resizeParentMax=0;resizeLast=0;collapsible=1;marginBottom=0;whiteSpace=wrap;html=1;" parent="WIyWlLk6GJQsqaUBKTNV-1" vertex="1"><mxGeometry x="564" y="-970" width="210" height="164" as="geometry"><mxRectangle x="180" y="66" width="107" height="26" as="alternateBounds"/></mxGeometry></mxCell><mxCell id="NRqoyUgFvy12pmHnRJRa-212" value="+ field: type" style="text;strokeColor=none;fillColor=none;align=left;verticalAlign=top;spacingLeft=4;spacingRight=4;overflow=hidden;rotatable=0;points=[[0,0.5],[1,0.5]];portConstraint=eastwest;whiteSpace=wrap;html=1;" parent="NRqoyUgFvy12pmHnRJRa-211" vertex="1"><mxGeometry y="26" width="210" height="26" as="geometry"/></mxCell><mxCell id="NRqoyUgFvy12pmHnRJRa-213" value="" style="line;strokeWidth=1;fillColor=none;align=left;verticalAlign=middle;spacingTop=-1;spacingLeft=3;spacingRight=3;rotatable=0;labelPosition=right;points=[];portConstraint=eastwest;strokeColor=inherit;" parent="NRqoyUgFvy12pmHnRJRa-211" vertex="1"><mxGeometry y="52" width="210" height="8" as="geometry"/></mxCell><mxCell id="scS6lB70-Swo1higGm-x-53" value="+ addToBasket(Dish): void&lt;br&gt;" style="text;strokeColor=none;fillColor=none;align=left;verticalAlign=top;spacingLeft=4;spacingRight=4;overflow=hidden;rotatable=0;points=[[0,0.5],[1,0.5]];portConstraint=eastwest;whiteSpace=wrap;html=1;" parent="NRqoyUgFvy12pmHnRJRa-211" vertex="1"><mxGeometry y="60" width="210" height="26" as="geometry"/></mxCell><mxCell id="35" value="&lt;div&gt;+ getBasket(): Basket&lt;/div&gt;&lt;div&gt;&lt;br&gt;&lt;/div&gt;" style="text;strokeColor=none;fillColor=none;align=left;verticalAlign=top;spacingLeft=4;spacingRight=4;overflow=hidden;rotatable=0;points=[[0,0.5],[1,0.5]];portConstraint=eastwest;whiteSpace=wrap;html=1;" vertex="1" parent="NRqoyUgFvy12pmHnRJRa-211"><mxGeometry y="86" width="210" height="26" as="geometry"/></mxCell><mxCell id="34" value="&lt;div&gt;+ removeFromBasket(Dish): void&lt;/div&gt;&lt;div&gt;&lt;br&gt;&lt;/div&gt;" style="text;strokeColor=none;fillColor=none;align=left;verticalAlign=top;spacingLeft=4;spacingRight=4;overflow=hidden;rotatable=0;points=[[0,0.5],[1,0.5]];portConstraint=eastwest;whiteSpace=wrap;html=1;" vertex="1" parent="NRqoyUgFvy12pmHnRJRa-211"><mxGeometry y="112" width="210" height="26" as="geometry"/></mxCell><mxCell id="32" value="+ clearBasket(): void" style="text;strokeColor=none;fillColor=none;align=left;verticalAlign=top;spacingLeft=4;spacingRight=4;overflow=hidden;rotatable=0;points=[[0,0.5],[1,0.5]];portConstraint=eastwest;whiteSpace=wrap;html=1;" vertex="1" parent="NRqoyUgFvy12pmHnRJRa-211"><mxGeometry y="138" width="210" height="26" as="geometry"/></mxCell><mxCell id="7CPi1hFvJVEqu4h6u_QQ-11" style="edgeStyle=orthogonalEdgeStyle;rounded=0;orthogonalLoop=1;jettySize=auto;html=1;exitX=0.5;exitY=0;exitDx=0;exitDy=0;" parent="WIyWlLk6GJQsqaUBKTNV-1" source="7CPi1hFvJVEqu4h6u_QQ-8" target="Qq1OwkYHJl0CPa1Xtjsu-0" edge="1"><mxGeometry relative="1" as="geometry"/></mxCell><mxCell id="7CPi1hFvJVEqu4h6u_QQ-8" value="Bill" style="swimlane;fontStyle=1;align=center;verticalAlign=top;childLayout=stackLayout;horizontal=1;startSize=26;horizontalStack=0;resizeParent=1;resizeParentMax=0;resizeLast=0;collapsible=1;marginBottom=0;whiteSpace=wrap;html=1;" parent="WIyWlLk6GJQsqaUBKTNV-1" vertex="1"><mxGeometry x="944" y="312" width="160" height="86" as="geometry"><mxRectangle x="668" y="788" width="66" height="26" as="alternateBounds"/></mxGeometry></mxCell><mxCell id="scS6lB70-Swo1higGm-x-72" value="+ field: type" style="text;strokeColor=none;fillColor=none;align=left;verticalAlign=top;spacingLeft=4;spacingRight=4;overflow=hidden;rotatable=0;points=[[0,0.5],[1,0.5]];portConstraint=eastwest;whiteSpace=wrap;html=1;" parent="7CPi1hFvJVEqu4h6u_QQ-8" vertex="1"><mxGeometry y="26" width="160" height="26" as="geometry"/></mxCell><mxCell id="7CPi1hFvJVEqu4h6u_QQ-10" value="" style="line;strokeWidth=1;fillColor=none;align=left;verticalAlign=middle;spacingTop=-1;spacingLeft=3;spacingRight=3;rotatable=0;labelPosition=right;points=[];portConstraint=eastwest;strokeColor=inherit;" parent="7CPi1hFvJVEqu4h6u_QQ-8" vertex="1"><mxGeometry y="52" width="160" height="8" as="geometry"/></mxCell><mxCell id="scS6lB70-Swo1higGm-x-73" value="+ method(type): type" style="text;strokeColor=none;fillColor=none;align=left;verticalAlign=top;spacingLeft=4;spacingRight=4;overflow=hidden;rotatable=0;points=[[0,0.5],[1,0.5]];portConstraint=eastwest;whiteSpace=wrap;html=1;" parent="7CPi1hFvJVEqu4h6u_QQ-8" vertex="1"><mxGeometry y="60" width="160" height="26" as="geometry"/></mxCell><mxCell id="7CPi1hFvJVEqu4h6u_QQ-12" value="" style="endArrow=none;html=1;rounded=0;entryX=0.5;entryY=0;entryDx=0;entryDy=0;exitX=0.5;exitY=1;exitDx=0;exitDy=0;" parent="WIyWlLk6GJQsqaUBKTNV-1" source="Qq1OwkYHJl0CPa1Xtjsu-4" target="Qq1OwkYHJl0CPa1Xtjsu-0" edge="1"><mxGeometry relative="1" as="geometry"><mxPoint x="818" y="34" as="sourcePoint"/><mxPoint x="689.75" y="222.5" as="targetPoint"/></mxGeometry></mxCell><mxCell id="7CPi1hFvJVEqu4h6u_QQ-13" value="1" style="resizable=0;html=1;whiteSpace=wrap;align=left;verticalAlign=bottom;" parent="7CPi1hFvJVEqu4h6u_QQ-12" connectable="0" vertex="1"><mxGeometry x="-1" relative="1" as="geometry"><mxPoint x="-13" y="24" as="offset"/></mxGeometry></mxCell><mxCell id="7CPi1hFvJVEqu4h6u_QQ-14" value="*" style="resizable=0;html=1;whiteSpace=wrap;align=right;verticalAlign=bottom;" parent="7CPi1hFvJVEqu4h6u_QQ-12" connectable="0" vertex="1"><mxGeometry x="1" relative="1" as="geometry"><mxPoint x="-3" as="offset"/></mxGeometry></mxCell><mxCell id="7CPi1hFvJVEqu4h6u_QQ-17" value="" style="endArrow=diamondThin;endFill=0;endSize=24;html=1;rounded=0;" parent="WIyWlLk6GJQsqaUBKTNV-1" source="OFhcxBTgbAT6_pQEicne-0" target="eBTvOQhbbWVXLsYW8WIT-235" edge="1"><mxGeometry width="160" relative="1" as="geometry"><mxPoint x="182.5" y="-342" as="sourcePoint"/><mxPoint x="144.5" y="-394" as="targetPoint"/></mxGeometry></mxCell><mxCell id="7CPi1hFvJVEqu4h6u_QQ-18" value="" style="endArrow=none;html=1;rounded=0;entryX=0;entryY=0;entryDx=0;entryDy=0;" parent="WIyWlLk6GJQsqaUBKTNV-1" source="eBTvOQhbbWVXLsYW8WIT-73" target="NRqoyUgFvy12pmHnRJRa-0" edge="1"><mxGeometry width="50" height="50" relative="1" as="geometry"><mxPoint x="494" y="-230" as="sourcePoint"/><mxPoint x="544" y="-280" as="targetPoint"/></mxGeometry></mxCell><mxCell id="7CPi1hFvJVEqu4h6u_QQ-19" value="" style="endArrow=none;html=1;rounded=0;entryX=1;entryY=0;entryDx=0;entryDy=0;" parent="WIyWlLk6GJQsqaUBKTNV-1" source="eBTvOQhbbWVXLsYW8WIT-57" target="NRqoyUgFvy12pmHnRJRa-0" edge="1"><mxGeometry width="50" height="50" relative="1" as="geometry"><mxPoint x="615.5" y="-420" as="sourcePoint"/><mxPoint x="700.5" y="-394" as="targetPoint"/></mxGeometry></mxCell><mxCell id="7CPi1hFvJVEqu4h6u_QQ-21" value="" style="endArrow=none;html=1;rounded=0;" parent="WIyWlLk6GJQsqaUBKTNV-1" source="NRqoyUgFvy12pmHnRJRa-211" target="eBTvOQhbbWVXLsYW8WIT-41" edge="1"><mxGeometry width="50" height="50" relative="1" as="geometry"><mxPoint x="164" y="-560" as="sourcePoint"/><mxPoint x="214" y="-610" as="targetPoint"/></mxGeometry></mxCell><mxCell id="7CPi1hFvJVEqu4h6u_QQ-25" value="" style="endArrow=none;html=1;rounded=0;exitX=1;exitY=0.5;exitDx=0;exitDy=0;entryX=0;entryY=0;entryDx=0;entryDy=0;" parent="WIyWlLk6GJQsqaUBKTNV-1" source="Qq1OwkYHJl0CPa1Xtjsu-8" target="eBTvOQhbbWVXLsYW8WIT-61" edge="1"><mxGeometry width="50" height="50" relative="1" as="geometry"><mxPoint x="-136" y="-560" as="sourcePoint"/><mxPoint x="-86" y="-610" as="targetPoint"/></mxGeometry></mxCell><mxCell id="7CPi1hFvJVEqu4h6u_QQ-26" value="" style="endArrow=none;html=1;rounded=0;" parent="WIyWlLk6GJQsqaUBKTNV-1" source="eBTvOQhbbWVXLsYW8WIT-38" target="NRqoyUgFvy12pmHnRJRa-208" edge="1"><mxGeometry relative="1" as="geometry"><mxPoint x="409" y="-752" as="sourcePoint"/><mxPoint x="410" y="-832" as="targetPoint"/></mxGeometry></mxCell><mxCell id="7CPi1hFvJVEqu4h6u_QQ-30" value="" style="endArrow=none;html=1;rounded=0;exitX=0;exitY=0;exitDx=0;exitDy=0;" parent="WIyWlLk6GJQsqaUBKTNV-1" source="Qq1OwkYHJl0CPa1Xtjsu-4" target="eBTvOQhbbWVXLsYW8WIT-73" edge="1"><mxGeometry width="50" height="50" relative="1" as="geometry"><mxPoint x="664" y="70" as="sourcePoint"/><mxPoint x="714" y="20" as="targetPoint"/></mxGeometry></mxCell><mxCell id="wCl5vX7TFLa7LNLCwY4E-21" value="Dish" style="swimlane;fontStyle=1;align=center;verticalAlign=top;childLayout=stackLayout;horizontal=1;startSize=26;horizontalStack=0;resizeParent=1;resizeParentMax=0;resizeLast=0;collapsible=1;marginBottom=0;whiteSpace=wrap;html=1;" parent="WIyWlLk6GJQsqaUBKTNV-1" vertex="1"><mxGeometry x="703.9300000000001" y="419.9999999999998" width="160" height="112" as="geometry"><mxRectangle x="501.5" y="690" width="70" height="26" as="alternateBounds"/></mxGeometry></mxCell><mxCell id="wCl5vX7TFLa7LNLCwY4E-22" value="+ field: type" style="text;strokeColor=none;fillColor=none;align=left;verticalAlign=top;spacingLeft=4;spacingRight=4;overflow=hidden;rotatable=0;points=[[0,0.5],[1,0.5]];portConstraint=eastwest;whiteSpace=wrap;html=1;" parent="wCl5vX7TFLa7LNLCwY4E-21" vertex="1"><mxGeometry y="26" width="160" height="26" as="geometry"/></mxCell><mxCell id="wCl5vX7TFLa7LNLCwY4E-23" value="" style="line;strokeWidth=1;fillColor=none;align=left;verticalAlign=middle;spacingTop=-1;spacingLeft=3;spacingRight=3;rotatable=0;labelPosition=right;points=[];portConstraint=eastwest;strokeColor=inherit;" parent="wCl5vX7TFLa7LNLCwY4E-21" vertex="1"><mxGeometry y="52" width="160" height="8" as="geometry"/></mxCell><mxCell id="41" value="+ getDish(): Dish&lt;br&gt;" style="text;strokeColor=none;fillColor=none;align=left;verticalAlign=top;spacingLeft=4;spacingRight=4;overflow=hidden;rotatable=0;points=[[0,0.5],[1,0.5]];portConstraint=eastwest;whiteSpace=wrap;html=1;" vertex="1" parent="wCl5vX7TFLa7LNLCwY4E-21"><mxGeometry y="60" width="160" height="26" as="geometry"/></mxCell><mxCell id="42" value="+ updateDish(int) : void" style="text;strokeColor=none;fillColor=none;align=left;verticalAlign=top;spacingLeft=4;spacingRight=4;overflow=hidden;rotatable=0;points=[[0,0.5],[1,0.5]];portConstraint=eastwest;whiteSpace=wrap;html=1;" vertex="1" parent="wCl5vX7TFLa7LNLCwY4E-21"><mxGeometry y="86" width="160" height="26" as="geometry"/></mxCell><mxCell id="vOuXOaFDrCo5DjO68avi-40" value="" style="endArrow=diamondThin;endFill=0;endSize=24;html=1;rounded=0;" parent="WIyWlLk6GJQsqaUBKTNV-1" source="wCl5vX7TFLa7LNLCwY4E-21" target="NRqoyUgFvy12pmHnRJRa-211" edge="1"><mxGeometry width="160" relative="1" as="geometry"><mxPoint x="594" y="392" as="sourcePoint"/><mxPoint x="594" y="338" as="targetPoint"/><Array as="points"><mxPoint x="1504" y="470"/><mxPoint x="1504" y="-890"/></Array></mxGeometry></mxCell><mxCell id="vOuXOaFDrCo5DjO68avi-41" value="QrCode" style="swimlane;fontStyle=1;align=center;verticalAlign=top;childLayout=stackLayout;horizontal=1;startSize=26;horizontalStack=0;resizeParent=1;resizeParentMax=0;resizeLast=0;collapsible=1;marginBottom=0;whiteSpace=wrap;html=1;" parent="WIyWlLk6GJQsqaUBKTNV-1" vertex="1"><mxGeometry x="163" y="-830" width="160" height="60" as="geometry"><mxRectangle x="178" y="980" width="105" height="26" as="alternateBounds"/></mxGeometry></mxCell><mxCell id="vOuXOaFDrCo5DjO68avi-43" value="" style="line;strokeWidth=1;fillColor=none;align=left;verticalAlign=middle;spacingTop=-1;spacingLeft=3;spacingRight=3;rotatable=0;labelPosition=right;points=[];portConstraint=eastwest;strokeColor=inherit;" parent="vOuXOaFDrCo5DjO68avi-41" vertex="1"><mxGeometry y="26" width="160" height="8" as="geometry"/></mxCell><mxCell id="vOuXOaFDrCo5DjO68avi-44" value="findMenu(code): Menu" style="text;strokeColor=none;fillColor=none;align=left;verticalAlign=top;spacingLeft=4;spacingRight=4;overflow=hidden;rotatable=0;points=[[0,0.5],[1,0.5]];portConstraint=eastwest;whiteSpace=wrap;html=1;" parent="vOuXOaFDrCo5DjO68avi-41" vertex="1"><mxGeometry y="34" width="160" height="26" as="geometry"/></mxCell><mxCell id="vOuXOaFDrCo5DjO68avi-45" value="SupplierOrder" style="swimlane;fontStyle=1;align=center;verticalAlign=top;childLayout=stackLayout;horizontal=1;startSize=26;horizontalStack=0;resizeParent=1;resizeParentMax=0;resizeLast=0;collapsible=1;marginBottom=0;whiteSpace=wrap;html=1;" parent="WIyWlLk6GJQsqaUBKTNV-1" vertex="1"><mxGeometry x="323" y="338" width="190" height="86" as="geometry"><mxRectangle x="178" y="980" width="105" height="26" as="alternateBounds"/></mxGeometry></mxCell><mxCell id="vOuXOaFDrCo5DjO68avi-46" value="+ field: type" style="text;strokeColor=none;fillColor=none;align=left;verticalAlign=top;spacingLeft=4;spacingRight=4;overflow=hidden;rotatable=0;points=[[0,0.5],[1,0.5]];portConstraint=eastwest;whiteSpace=wrap;html=1;" parent="vOuXOaFDrCo5DjO68avi-45" vertex="1"><mxGeometry y="26" width="190" height="26" as="geometry"/></mxCell><mxCell id="vOuXOaFDrCo5DjO68avi-47" value="" style="line;strokeWidth=1;fillColor=none;align=left;verticalAlign=middle;spacingTop=-1;spacingLeft=3;spacingRight=3;rotatable=0;labelPosition=right;points=[];portConstraint=eastwest;strokeColor=inherit;" parent="vOuXOaFDrCo5DjO68avi-45" vertex="1"><mxGeometry y="52" width="190" height="8" as="geometry"/></mxCell><mxCell id="vOuXOaFDrCo5DjO68avi-48" value="+ createSupplierOrder(): void" style="text;strokeColor=none;fillColor=none;align=left;verticalAlign=top;spacingLeft=4;spacingRight=4;overflow=hidden;rotatable=0;points=[[0,0.5],[1,0.5]];portConstraint=eastwest;whiteSpace=wrap;html=1;" parent="vOuXOaFDrCo5DjO68avi-45" vertex="1"><mxGeometry y="60" width="190" height="26" as="geometry"/></mxCell><mxCell id="vOuXOaFDrCo5DjO68avi-49" value="" style="endArrow=diamondThin;endFill=0;endSize=24;html=1;rounded=0;" parent="WIyWlLk6GJQsqaUBKTNV-1" source="vOuXOaFDrCo5DjO68avi-45" edge="1"><mxGeometry width="160" relative="1" as="geometry"><mxPoint x="382.5" y="326" as="sourcePoint"/><mxPoint x="418" y="290" as="targetPoint"/></mxGeometry></mxCell></root></mxGraphModel></diagram></mxfile>